# 3ds Max Wavefront OBJ Exporter v0.97b - (c)2007 guruware
# File Created: 23.08.2015 00:35:00

#
# object Line854
#

v  -80.9739 24.3132 0.2391
v  -93.4051 24.3859 0.2391
v  -93.3722 22.5994 0.2391
v  -80.9409 22.5268 0.2391
v  -80.9739 24.3132 -1.5476
v  -93.4051 24.3859 -1.5476
v  -80.9409 22.5268 -1.5476
v  -93.3722 22.5994 -1.5476
# 8 vertices

vn 0.0000 0.0000 1.0000
vn -0.0167 0.9999 -0.0000
vn 0.0000 0.0000 -1.0000
vn 0.0167 -0.9999 -0.0000
vn -0.9999 -0.0162 -0.0000
vn 0.9999 0.0162 -0.0000
# 6 vertex normals

g Line854
s 1
f 1//1 2//1 3//1 
f 3//1 4//1 1//1 
s 2
f 5//2 6//2 2//2 
f 2//2 1//2 5//2 
s 1
f 7//3 8//3 6//3 
f 6//3 5//3 7//3 
s 2
f 4//4 3//4 8//4 
f 8//4 7//4 4//4 
s 4
f 6//5 8//5 3//5 
f 3//5 2//5 6//5 
f 5//6 1//6 4//6 
f 7//6 5//6 4//6 
# 12 faces

#
# object Line852
#

v  -80.9739 121.2690 0.2391
v  -93.4051 121.3417 0.2391
v  -93.3722 119.5552 0.2391
v  -80.9409 119.4826 0.2391
v  -80.9739 121.2690 -1.5476
v  -93.4051 121.3417 -1.5476
v  -80.9409 119.4826 -1.5476
v  -93.3722 119.5552 -1.5476
# 8 vertices

vn 0.0000 0.0000 1.0000
vn -0.0167 0.9999 -0.0000
vn 0.0000 0.0000 -1.0000
vn 0.0167 -0.9999 -0.0000
vn -0.9999 -0.0162 -0.0000
vn 0.9999 0.0162 -0.0000
# 6 vertex normals

g Line852
s 1
f 9//7 10//7 11//7 
f 11//7 12//7 9//7 
s 2
f 13//8 14//8 10//8 
f 10//8 9//8 13//8 
s 1
f 15//9 16//9 14//9 
f 14//9 13//9 15//9 
s 2
f 12//10 11//10 16//10 
f 16//10 15//10 12//10 
s 4
f 14//11 16//11 11//11 
f 11//11 10//11 14//11 
f 13//12 9//12 12//12 
f 15//12 13//12 12//12 
# 12 faces

#
# object Line853
#

v  -80.9739 75.4562 0.2391
v  -93.4051 75.5289 0.2391
v  -93.3722 73.7425 0.2391
v  -80.9409 73.6698 0.2391
v  -80.9739 75.4562 -1.5476
v  -93.4051 75.5289 -1.5476
v  -80.9409 73.6698 -1.5476
v  -93.3722 73.7425 -1.5476
# 8 vertices

vn 0.0000 0.0000 1.0000
vn -0.0167 0.9999 -0.0000
vn 0.0000 0.0000 -1.0000
vn 0.0167 -0.9999 -0.0000
vn -0.9999 -0.0162 -0.0000
vn 0.9999 0.0162 -0.0000
# 6 vertex normals

g Line853
s 1
f 17//13 18//13 19//13 
f 19//13 20//13 17//13 
s 2
f 21//14 22//14 18//14 
f 18//14 17//14 21//14 
s 1
f 23//15 24//15 22//15 
f 22//15 21//15 23//15 
s 2
f 20//16 19//16 24//16 
f 24//16 23//16 20//16 
s 4
f 22//17 24//17 19//17 
f 19//17 18//17 22//17 
f 21//18 17//18 20//18 
f 23//18 21//18 20//18 
# 12 faces

