# 3ds Max Wavefront OBJ Exporter v0.97b - (c)2007 guruware
# File Created: 23.08.2015 00:24:07

#
# object Walls__Walls_1___Walls_1_05
#

v  -104.0920 139.2913 -9.6523
v  -104.0920 139.7269 -9.6523
v  -82.3120 139.2913 -9.6523
v  -82.3120 139.7269 -9.6523
v  -103.6563 137.9845 -9.2168
v  -103.6563 139.2913 -9.2168
v  -82.7476 137.9845 -9.2168
v  -82.7476 139.2913 -9.2168
v  -102.7851 139.7269 -8.3457
v  -102.7851 137.9845 -8.3457
v  -83.6187 139.7269 -8.3457
v  -83.6187 137.9845 -8.3457
v  -82.3120 139.2913 12.1276
v  -82.3120 139.7269 12.1276
v  -82.7476 137.9845 11.6921
v  -82.7476 139.2913 11.6921
v  -83.6187 139.7269 10.8208
v  -83.6187 137.9845 10.8208
v  -104.0920 139.2913 12.1276
v  -104.0920 139.7269 12.1276
v  -103.6563 137.9845 11.6921
v  -103.6563 139.2913 11.6921
v  -102.7851 139.7269 10.8208
v  -102.7851 137.9845 10.8208
v  -83.6187 134.0641 10.8208
v  -102.7851 134.0641 10.8208
v  -83.6187 134.0641 -8.3457
v  -102.7851 134.0641 -8.3457
v  -86.0146 134.0641 -5.9498
v  -100.3894 134.0641 -5.9498
v  -86.0146 134.0641 8.4250
v  -100.3894 134.0641 8.4250
v  -86.0146 133.1929 8.4250
v  -100.3894 133.1929 8.4250
v  -86.0146 133.1929 -5.9498
v  -100.3894 133.1929 -5.9498
v  -84.4899 133.1929 9.9496
v  -84.4899 133.1929 -7.4743
v  -101.9140 133.1929 9.9496
v  -101.9140 133.1929 -7.4743
v  -101.9139 59.7957 9.9496
v  -101.9139 59.7957 -7.4744
v  -84.4899 59.7957 9.9496
v  -84.4899 59.7957 -7.4744
v  -81.6585 57.1821 12.7809
v  -81.6585 57.1821 -10.3058
v  -104.7453 57.1821 12.7809
v  -104.7453 57.1821 -10.3058
v  -81.6585 55.4397 -10.3058
v  -81.6585 55.4397 12.7809
v  -104.7453 55.4397 -10.3058
v  -104.7453 55.4397 12.7809
v  -105.3987 59.7957 13.4344
v  -81.0051 59.7957 13.4344
v  -105.3987 59.7957 -10.9592
v  -81.0051 59.7957 -10.9592
v  -81.0051 57.1821 13.4344
v  -105.3987 57.1821 13.4344
v  -81.0051 57.1821 -10.9592
v  -105.3987 57.1821 -10.9592
v  -82.3118 55.4397 -9.6524
v  -104.0919 55.4397 -9.6524
v  -82.3118 55.4397 12.1276
v  -104.0919 55.4397 12.1276
v  -82.3120 13.0906 12.1276
v  -104.0920 13.0906 12.1276
v  -82.3120 13.0906 -9.6523
v  -104.0920 13.0906 -9.6523
v  -97.5579 48.9057 12.1276
v  -88.8459 48.9057 12.1276
v  -97.5579 19.6246 12.1276
v  -88.8460 19.6246 12.1276
v  -88.8459 48.9057 10.3851
v  -97.5579 48.9057 10.3851
v  -97.5579 19.6246 10.3852
v  -88.8460 19.6246 10.3852
v  -81.0051 13.0906 -10.9592
v  -105.3988 13.0906 -10.9592
v  -81.0051 13.0906 13.4344
v  -105.3988 13.0906 13.4344
v  -81.0051 9.6058 13.4344
v  -105.3988 9.6058 13.4344
v  -81.0051 9.6058 -10.9592
v  -105.3988 9.6058 -10.9592
v  -79.0449 9.6058 15.3947
v  -79.0449 9.6058 -12.9194
v  -107.3590 9.6058 15.3947
v  -107.3590 9.6058 -12.9194
v  -107.3590 -10.5260 15.3947
v  -107.3590 -10.5260 -12.9193
v  -79.0449 -10.5260 15.3947
v  -79.0449 -10.5260 -12.9193
# 92 vertices

vn 0.0000 0.0000 -1.0000
vn 0.0000 0.0000 1.0000
vn 1.0000 0.0000 -0.0000
vn -1.0000 0.0000 -0.0000
vn 0.0000 1.0000 -0.0000
vn 0.0000 -1.0000 -0.0000
# 6 vertex normals

g Walls__Walls_1___Walls_1_05
s 1
f 1//1 2//1 3//1 
f 2//1 4//1 3//1 
f 5//1 6//1 7//1 
f 6//1 8//1 7//1 
f 9//2 10//2 11//2 
f 10//2 12//2 11//2 
f 3//3 4//3 13//3 
f 4//3 14//3 13//3 
f 7//3 8//3 15//3 
f 8//3 16//3 15//3 
f 11//4 12//4 17//4 
f 12//4 18//4 17//4 
f 13//2 14//2 19//2 
f 14//2 20//2 19//2 
f 15//2 16//2 21//2 
f 16//2 22//2 21//2 
f 17//1 18//1 23//1 
f 18//1 24//1 23//1 
f 14//5 17//5 20//5 
f 17//5 23//5 20//5 
f 11//5 17//5 4//5 
f 17//5 14//5 4//5 
f 20//5 23//5 2//5 
f 23//5 9//5 2//5 
f 9//5 11//5 2//5 
f 11//5 4//5 2//5 
f 1//4 19//4 2//4 
f 19//4 20//4 2//4 
f 19//6 22//6 13//6 
f 22//6 16//6 13//6 
f 6//6 22//6 1//6 
f 22//6 19//6 1//6 
f 13//6 16//6 3//6 
f 16//6 8//6 3//6 
f 8//6 6//6 3//6 
f 6//6 1//6 3//6 
f 5//4 21//4 6//4 
f 21//4 22//4 6//4 
f 21//6 24//6 15//6 
f 24//6 18//6 15//6 
f 10//6 24//6 5//6 
f 24//6 21//6 5//6 
f 15//6 18//6 7//6 
f 18//6 12//6 7//6 
f 12//6 10//6 7//6 
f 10//6 5//6 7//6 
f 9//3 23//3 10//3 
f 23//3 24//3 10//3 
f 11//5 9//5 17//5 
f 9//5 23//5 17//5 
f 18//6 24//6 12//6 
f 24//6 10//6 12//6 
f 23//4 9//4 24//4 
f 9//4 10//4 24//4 
f 17//2 23//2 18//2 
f 23//2 24//2 18//2 
f 11//3 17//3 12//3 
f 17//3 18//3 12//3 
f 9//1 11//1 10//1 
f 11//1 12//1 10//1 
f 12//5 10//5 18//5 
f 10//5 24//5 18//5 
f 25//6 26//6 27//6 
f 26//6 28//6 27//6 
f 26//4 24//4 28//4 
f 24//4 10//4 28//4 
f 25//2 18//2 26//2 
f 18//2 24//2 26//2 
f 27//3 12//3 25//3 
f 12//3 18//3 25//3 
f 28//1 10//1 27//1 
f 10//1 12//1 27//1 
f 29//5 30//5 31//5 
f 30//5 32//5 31//5 
f 33//6 34//6 35//6 
f 34//6 36//6 35//6 
f 32//4 30//4 34//4 
f 30//4 36//4 34//4 
f 31//2 32//2 33//2 
f 32//2 34//2 33//2 
f 29//3 31//3 35//3 
f 31//3 33//3 35//3 
f 30//1 29//1 36//1 
f 29//1 35//1 36//1 
f 37//5 38//5 39//5 
f 38//5 40//5 39//5 
f 41//6 42//6 43//6 
f 42//6 44//6 43//6 
f 40//1 38//1 42//1 
f 38//1 44//1 42//1 
f 39//4 40//4 41//4 
f 40//4 42//4 41//4 
f 37//2 39//2 43//2 
f 39//2 41//2 43//2 
f 38//3 37//3 44//3 
f 37//3 43//3 44//3 
f 45//5 46//5 47//5 
f 46//5 48//5 47//5 
f 49//6 50//6 51//6 
f 50//6 52//6 51//6 
f 47//4 48//4 52//4 
f 48//4 51//4 52//4 
f 50//2 45//2 52//2 
f 45//2 47//2 52//2 
f 46//3 45//3 49//3 
f 45//3 50//3 49//3 
f 51//1 48//1 49//1 
f 48//1 46//1 49//1 
f 53//5 54//5 55//5 
f 54//5 56//5 55//5 
f 57//6 58//6 59//6 
f 58//6 60//6 59//6 
f 55//1 56//1 60//1 
f 56//1 59//1 60//1 
f 58//4 53//4 60//4 
f 53//4 55//4 60//4 
f 54//2 53//2 57//2 
f 53//2 58//2 57//2 
f 59//3 56//3 57//3 
f 56//3 54//3 57//3 
f 61//5 62//5 63//5 
f 62//5 64//5 63//5 
f 65//6 66//6 67//6 
f 66//6 68//6 67//6 
f 64//4 62//4 66//4 
f 62//4 68//4 66//4 
f 64//2 69//2 63//2 
f 69//2 70//2 63//2 
f 71//2 69//2 66//2 
f 69//2 64//2 66//2 
f 63//2 70//2 65//2 
f 70//2 72//2 65//2 
f 72//2 71//2 65//2 
f 71//2 66//2 65//2 
f 61//3 63//3 67//3 
f 63//3 65//3 67//3 
f 62//1 61//1 68//1 
f 61//1 67//1 68//1 
f 70//6 69//6 73//6 
f 69//6 74//6 73//6 
f 74//3 69//3 75//3 
f 69//3 71//3 75//3 
f 71//5 72//5 75//5 
f 72//5 76//5 75//5 
f 76//4 72//4 73//4 
f 72//4 70//4 73//4 
f 77//5 78//5 79//5 
f 78//5 80//5 79//5 
f 81//6 82//6 83//6 
f 82//6 84//6 83//6 
f 82//4 80//4 84//4 
f 80//4 78//4 84//4 
f 81//2 79//2 82//2 
f 79//2 80//2 82//2 
f 83//3 77//3 81//3 
f 77//3 79//3 81//3 
f 84//1 78//1 83//1 
f 78//1 77//1 83//1 
f 85//5 86//5 87//5 
f 86//5 88//5 87//5 
f 89//6 90//6 91//6 
f 90//6 92//6 91//6 
f 90//1 88//1 92//1 
f 88//1 86//1 92//1 
f 89//4 87//4 90//4 
f 87//4 88//4 90//4 
f 91//2 85//2 89//2 
f 85//2 87//2 89//2 
f 92//3 86//3 91//3 
f 86//3 85//3 91//3 
# 170 faces

#
# object Mesh07
#

v  -97.5576 48.9057 10.3851
v  -97.5576 19.6246 10.3853
v  -88.8457 48.9057 10.3851
v  -88.8457 19.6246 10.3853
# 4 vertices

vn 0.0000 0.0000 1.0000
# 1 vertex normals

g Mesh07
s 1
f 93//7 94//7 95//7 
f 94//7 96//7 95//7 
# 2 faces

