# 3ds Max Wavefront OBJ Exporter v0.97b - (c)2007 guruware
# File Created: 21.08.2015 16:04:15

#
# object Mesh04
#

v  -242.8743 41.3615 9.5052
v  -242.8743 16.9521 9.5052
v  -235.0003 41.3615 9.5052
v  -235.0003 16.9521 9.5052
# 4 vertices

vn 0.0000 0.0000 1.0000
# 1 vertex normals

g Mesh04
s 1
f 1//1 2//1 3//1 
f 2//1 4//1 3//1 
# 2 faces

#
# object Walls__Walls_1___Walls_1_02
#

v  -248.7803 124.4324 -8.6049
v  -248.7803 124.8261 -8.6049
v  -229.0953 124.4324 -8.6049
v  -229.0953 124.8261 -8.6049
v  -248.3866 123.2513 -8.2112
v  -248.3866 124.4324 -8.2112
v  -229.4890 123.2513 -8.2112
v  -229.4890 124.4324 -8.2112
v  -247.5992 124.8261 -7.4239
v  -247.5992 123.2513 -7.4239
v  -230.2764 124.8261 -7.4239
v  -230.2764 123.2513 -7.4239
v  -229.0953 124.4324 11.0801
v  -229.0953 124.8261 11.0801
v  -229.4890 123.2513 10.6864
v  -229.4890 124.4324 10.6864
v  -230.2764 124.8261 9.8990
v  -230.2764 123.2513 9.8990
v  -248.7803 124.4324 11.0801
v  -248.7803 124.8261 11.0801
v  -248.3866 123.2513 10.6864
v  -248.3866 124.4324 10.6864
v  -247.5992 124.8261 9.8990
v  -247.5992 123.2513 9.8990
v  -230.2764 119.7080 9.8990
v  -247.5992 119.7080 9.8990
v  -230.2764 119.7080 -7.4239
v  -247.5992 119.7080 -7.4239
v  -232.4418 119.7080 -5.2585
v  -245.4339 119.7080 -5.2585
v  -232.4418 119.7080 7.7336
v  -245.4339 119.7080 7.7336
v  -232.4418 118.9206 7.7336
v  -245.4339 118.9206 7.7336
v  -232.4418 118.9206 -5.2585
v  -245.4339 118.9206 -5.2585
v  -231.0638 118.9206 9.1116
v  -231.0638 118.9206 -6.6364
v  -246.8118 118.9206 9.1116
v  -246.8118 118.9206 -6.6364
v  -246.8118 51.2040 9.1116
v  -246.8118 51.2040 -6.6364
v  -231.0638 51.2040 9.1116
v  -231.0638 51.2040 -6.6364
v  -228.5047 48.8418 11.6706
v  -228.5047 48.8418 -9.1955
v  -249.3708 48.8418 11.6706
v  -249.3708 48.8418 -9.1955
v  -228.5047 47.2670 -9.1955
v  -228.5047 47.2670 11.6706
v  -249.3708 47.2670 -9.1955
v  -249.3708 47.2670 11.6706
v  -249.9614 51.2040 12.2612
v  -227.9142 51.2040 12.2612
v  -249.9614 51.2040 -9.7861
v  -227.9142 51.2040 -9.7861
v  -227.9142 48.8418 12.2612
v  -249.9614 48.8418 12.2612
v  -227.9142 48.8418 -9.7861
v  -249.9614 48.8418 -9.7861
v  -229.0953 47.2670 -8.6049
v  -248.7803 47.2670 -8.6049
v  -229.0953 47.2670 11.0801
v  -248.7803 47.2670 11.0801
v  -229.0953 11.0466 11.0801
v  -248.7803 11.0466 11.0801
v  -229.0953 11.0466 -8.6049
v  -248.7803 11.0466 -8.6049
v  -242.8748 41.3615 11.0801
v  -235.0008 41.3615 11.0801
v  -242.8748 16.9521 11.0801
v  -235.0008 16.9521 11.0801
v  -235.0008 41.3615 9.5052
v  -242.8748 41.3615 9.5052
v  -242.8748 16.9521 9.5052
v  -235.0008 16.9521 9.5052
v  -227.9142 11.0466 -9.7861
v  -249.9614 11.0466 -9.7861
v  -227.9142 11.0466 12.2612
v  -249.9614 11.0466 12.2612
v  -227.9142 7.8970 12.2612
v  -249.9614 7.8970 12.2612
v  -227.9142 7.8970 -9.7861
v  -249.9614 7.8970 -9.7861
v  -226.1425 7.8970 14.0328
v  -226.1425 7.8970 -11.5577
v  -251.7331 7.8970 14.0328
v  -251.7331 7.8970 -11.5577
v  -251.7331 0.0229 14.0328
v  -251.7331 0.0229 -11.5577
v  -226.1425 0.0229 14.0328
v  -226.1425 0.0229 -11.5577
# 92 vertices

vn 0.0000 0.0000 -1.0000
vn 0.0000 0.0000 1.0000
vn 1.0000 0.0000 -0.0000
vn -1.0000 0.0000 -0.0000
vn 0.0000 1.0000 -0.0000
vn 0.0000 -1.0000 -0.0000
# 6 vertex normals

g Walls__Walls_1___Walls_1_02
s 1
f 5//2 6//2 7//2 
f 6//2 8//2 7//2 
f 9//2 10//2 11//2 
f 10//2 12//2 11//2 
f 13//3 14//3 15//3 
f 14//3 16//3 15//3 
f 7//4 8//4 17//4 
f 8//4 18//4 17//4 
f 11//4 12//4 19//4 
f 12//4 20//4 19//4 
f 15//5 16//5 21//5 
f 16//5 22//5 21//5 
f 17//3 18//3 23//3 
f 18//3 24//3 23//3 
f 19//3 20//3 25//3 
f 20//3 26//3 25//3 
f 21//2 22//2 27//2 
f 22//2 28//2 27//2 
f 18//6 21//6 24//6 
f 21//6 27//6 24//6 
f 15//6 21//6 8//6 
f 21//6 18//6 8//6 
f 24//6 27//6 6//6 
f 27//6 13//6 6//6 
f 13//6 15//6 6//6 
f 15//6 8//6 6//6 
f 5//5 23//5 6//5 
f 23//5 24//5 6//5 
f 23//7 26//7 17//7 
f 26//7 20//7 17//7 
f 10//7 26//7 5//7 
f 26//7 23//7 5//7 
f 17//7 20//7 7//7 
f 20//7 12//7 7//7 
f 12//7 10//7 7//7 
f 10//7 5//7 7//7 
f 9//5 25//5 10//5 
f 25//5 26//5 10//5 
f 25//7 28//7 19//7 
f 28//7 22//7 19//7 
f 14//7 28//7 9//7 
f 28//7 25//7 9//7 
f 19//7 22//7 11//7 
f 22//7 16//7 11//7 
f 16//7 14//7 11//7 
f 14//7 9//7 11//7 
f 13//4 27//4 14//4 
f 27//4 28//4 14//4 
f 15//6 13//6 21//6 
f 13//6 27//6 21//6 
f 22//7 28//7 16//7 
f 28//7 14//7 16//7 
f 27//5 13//5 28//5 
f 13//5 14//5 28//5 
f 21//3 27//3 22//3 
f 27//3 28//3 22//3 
f 15//4 21//4 16//4 
f 21//4 22//4 16//4 
f 13//2 15//2 14//2 
f 15//2 16//2 14//2 
f 16//6 14//6 22//6 
f 14//6 28//6 22//6 
f 29//7 30//7 31//7 
f 30//7 32//7 31//7 
f 30//5 28//5 32//5 
f 28//5 14//5 32//5 
f 29//3 22//3 30//3 
f 22//3 28//3 30//3 
f 31//4 16//4 29//4 
f 16//4 22//4 29//4 
f 32//2 14//2 31//2 
f 14//2 16//2 31//2 
f 33//6 34//6 35//6 
f 34//6 36//6 35//6 
f 37//7 38//7 39//7 
f 38//7 40//7 39//7 
f 36//5 34//5 38//5 
f 34//5 40//5 38//5 
f 35//3 36//3 37//3 
f 36//3 38//3 37//3 
f 33//4 35//4 39//4 
f 35//4 37//4 39//4 
f 34//2 33//2 40//2 
f 33//2 39//2 40//2 
f 41//6 42//6 43//6 
f 42//6 44//6 43//6 
f 45//7 46//7 47//7 
f 46//7 48//7 47//7 
f 44//2 42//2 46//2 
f 42//2 48//2 46//2 
f 43//5 44//5 45//5 
f 44//5 46//5 45//5 
f 41//3 43//3 47//3 
f 43//3 45//3 47//3 
f 42//4 41//4 48//4 
f 41//4 47//4 48//4 
f 49//6 50//6 51//6 
f 50//6 52//6 51//6 
f 53//7 54//7 55//7 
f 54//7 56//7 55//7 
f 51//5 52//5 56//5 
f 52//5 55//5 56//5 
f 54//3 49//3 56//3 
f 49//3 51//3 56//3 
f 50//4 49//4 53//4 
f 49//4 54//4 53//4 
f 55//2 52//2 53//2 
f 52//2 50//2 53//2 
f 57//6 58//6 59//6 
f 58//6 60//6 59//6 
f 61//7 62//7 63//7 
f 62//7 64//7 63//7 
f 59//2 60//2 64//2 
f 60//2 63//2 64//2 
f 62//5 57//5 64//5 
f 57//5 59//5 64//5 
f 58//3 57//3 61//3 
f 57//3 62//3 61//3 
f 63//4 60//4 61//4 
f 60//4 58//4 61//4 
f 65//6 66//6 67//6 
f 66//6 68//6 67//6 
f 69//7 70//7 71//7 
f 70//7 72//7 71//7 
f 68//5 66//5 70//5 
f 66//5 72//5 70//5 
f 68//3 73//3 67//3 
f 73//3 74//3 67//3 
f 75//3 73//3 70//3 
f 73//3 68//3 70//3 
f 67//3 74//3 69//3 
f 74//3 76//3 69//3 
f 76//3 75//3 69//3 
f 75//3 70//3 69//3 
f 65//4 67//4 71//4 
f 67//4 69//4 71//4 
f 66//2 65//2 72//2 
f 65//2 71//2 72//2 
f 74//7 73//7 77//7 
f 73//7 78//7 77//7 
f 78//4 73//4 79//4 
f 73//4 75//4 79//4 
f 75//6 76//6 79//6 
f 76//6 80//6 79//6 
f 80//5 76//5 77//5 
f 76//5 74//5 77//5 
f 81//6 82//6 83//6 
f 82//6 84//6 83//6 
f 85//7 86//7 87//7 
f 86//7 88//7 87//7 
f 86//5 84//5 88//5 
f 84//5 82//5 88//5 
f 85//3 83//3 86//3 
f 83//3 84//3 86//3 
f 87//4 81//4 85//4 
f 81//4 83//4 85//4 
f 88//2 82//2 87//2 
f 82//2 81//2 87//2 
f 89//6 90//6 91//6 
f 90//6 92//6 91//6 
f 93//7 94//7 95//7 
f 94//7 96//7 95//7 
f 94//2 92//2 96//2 
f 92//2 90//2 96//2 
f 93//5 91//5 94//5 
f 91//5 92//5 94//5 
f 95//3 89//3 93//3 
f 89//3 91//3 93//3 
f 96//4 90//4 95//4 
f 90//4 89//4 95//4 
# 170 faces

#
# object Box415
#

v  -230.5331 1.0000 6.5577
v  -230.5331 1.0000 -5.4423
v  -102.5331 1.0000 -5.4423
v  -102.5331 1.0000 6.5577
v  -230.5331 38.0000 6.5577
v  -102.5331 38.0000 6.5577
v  -102.5331 38.0000 -5.4423
v  -230.5331 38.0000 -5.4423
# 8 vertices

vn 0.0000 -1.0000 -0.0000
vn 0.0000 1.0000 -0.0000
vn 0.0000 0.0000 1.0000
vn 1.0000 0.0000 -0.0000
vn 0.0000 0.0000 -1.0000
vn -1.0000 0.0000 -0.0000
# 6 vertex normals

g Box415
s 2
f 97//8 98//8 99//8 
f 99//8 100//8 97//8 
s 4
f 101//9 102//9 103//9 
f 103//9 104//9 101//9 
s 8
f 97//10 100//10 102//10 
f 102//10 101//10 97//10 
s 16
f 100//11 99//11 103//11 
f 103//11 102//11 100//11 
s 32
f 99//12 98//12 104//12 
f 104//12 103//12 99//12 
s 64
f 98//13 97//13 101//13 
f 101//13 104//13 98//13 
# 12 faces

#
# object Floors__Floors_28___Floors_28_
#

v  -231.6119 40.3531 -2.4728
v  -170.1565 40.3531 -2.4728
v  -231.6119 40.3531 -5.6224
v  -164.6978 40.3531 -2.4728
v  -102.8786 40.3531 -2.4728
v  -102.8540 40.3531 -5.4256
v  -102.8540 40.3531 -2.4728
v  -102.8540 40.3531 -5.6224
v  -231.6119 36.8098 -2.4728
v  -102.8540 36.8098 -2.4728
v  -231.6119 36.8098 -3.2603
v  -102.8540 36.8098 -3.2603
v  -231.6119 37.9909 -3.2603
v  -102.8540 37.9909 -3.2603
v  -231.6119 37.9909 -5.6224
v  -102.8540 37.9909 -5.6224
v  -102.8540 38.0902 -6.0706
v  -231.6119 38.3369 -6.4576
v  -102.8540 38.1961 -6.2741
v  -231.6119 38.0902 -6.0706
v  -102.8540 38.3369 -6.4576
v  -231.6119 38.7239 -6.7043
v  -102.8540 38.7239 -6.7043
v  -231.6119 38.5203 -6.5984
v  -102.8540 38.9427 -6.7734
v  -231.6119 39.6201 -6.7043
v  -102.8540 39.6201 -6.7043
v  -231.6119 39.1720 -6.8035
v  -102.8540 39.8237 -6.5984
v  -231.6119 40.2539 -6.0706
v  -102.8540 40.0072 -6.4576
v  -231.6119 40.0072 -6.4576
v  -102.8540 40.2539 -6.0706
v  -102.8540 39.1720 -6.8035
v  -102.8540 40.3531 6.5823
v  -231.6119 40.3531 6.5823
v  -102.8540 40.2539 7.0304
v  -231.6119 39.8237 7.5582
v  -102.8540 40.0072 7.4174
v  -231.6119 40.0072 7.4174
v  -102.8540 39.6201 7.6641
v  -231.6119 39.1720 7.7634
v  -102.8540 39.1720 7.7634
v  -231.6119 39.6201 7.6641
v  -231.6119 38.9427 7.7332
v  -102.8540 38.7239 7.6641
v  -231.6119 38.7239 7.6641
v  -231.6119 38.1961 7.2340
v  -102.8540 38.3369 7.4174
v  -231.6119 38.3369 7.4174
v  -102.8540 38.0902 7.0304
v  -231.6119 37.9909 6.5823
v  -102.8540 37.9909 6.5823
v  -231.6119 38.0902 7.0304
v  -102.8540 40.1480 7.2340
v  -231.6119 37.9909 4.2201
v  -102.8540 37.9909 4.2201
v  -231.6119 36.8098 4.2201
v  -102.8540 36.8098 4.2201
v  -231.6119 36.8098 3.4327
v  -102.8540 36.8098 3.4327
v  -231.6119 40.3531 3.4327
v  -170.1565 40.3531 3.4327
v  -164.6978 40.3531 3.4327
v  -102.8540 40.3531 3.4327
v  -102.8786 40.3531 3.4327
v  -102.8540 40.3531 6.3854
# 67 vertices

vn 0.0000 1.0000 -0.0000
vn 0.0000 0.9941 -0.1088
vn 0.0000 0.0000 1.0000
vn 0.0000 -1.0000 -0.0000
vn 0.0000 0.0000 -1.0000
vn 0.0000 -0.9941 -0.1088
vn 0.0000 -0.9763 -0.2162
vn 0.0000 -0.7372 -0.6757
vn 0.0000 -0.8434 -0.5372
vn -0.0001 -0.8433 -0.5375
vn 0.0000 -0.6757 -0.7372
vn 0.0000 -0.3418 -0.9398
vn 0.0000 -0.4229 -0.9062
vn 0.0000 -0.5372 -0.8434
vn 0.0000 -0.2166 -0.9763
vn 0.0000 0.2162 -0.9763
vn 0.0000 0.4615 -0.8872
vn -0.0001 0.5375 -0.8433
vn 0.0000 0.5372 -0.8434
vn 0.0000 0.8433 -0.5375
vn 0.0000 0.9763 -0.2162
vn 0.0000 0.6088 -0.7933
vn -0.0001 0.5375 -0.8432
vn 0.0000 -0.1304 -0.9915
vn -0.0001 -0.2162 -0.9764
vn 0.0000 -0.8871 -0.4616
vn 0.0000 0.9941 0.1088
vn -0.0001 0.9808 0.1950
vn -0.0001 0.9398 0.3418
vn 0.0000 0.5372 0.8434
vn 0.0000 0.6757 0.7372
vn -0.0001 0.7933 0.6088
vn 0.0001 0.5375 0.8433
vn 0.0000 0.2162 0.9763
vn 0.0000 -0.1304 0.9915
vn 0.0000 -0.2166 0.9763
vn 0.0001 -0.2162 0.9764
vn 0.0001 -0.2163 0.9763
vn 0.0000 -0.3011 0.9536
vn 0.0000 -0.8434 0.5372
vn 0.0001 -0.8432 0.5375
vn 0.0000 -0.7933 0.6089
vn 0.0001 -0.8433 0.5375
vn 0.0000 -0.9941 0.1088
vn 0.0000 -0.9763 0.2162
vn 0.0000 -0.8871 0.4615
vn 0.0000 -0.5375 0.8433
vn 0.0000 0.4615 0.8872
vn -0.0001 0.8435 0.5372
vn 1.0000 0.0000 -0.0000
vn -1.0000 0.0000 -0.0000
# 51 vertex normals

g Floors__Floors_28___Floors_28_
s 1
f 105//14 106//14 107//15 
f 106//14 108//14 107//15 
f 109//14 110//14 108//14 
f 109//14 111//14 110//14 
f 110//14 112//15 108//14 
f 112//15 107//15 108//14 
s 2
f 105//16 113//16 106//16 
f 106//16 113//16 108//16 
f 111//16 109//16 114//16 
f 109//16 108//16 114//16 
f 114//16 108//16 113//16 
s 1
f 115//17 116//17 113//17 
f 116//17 114//17 113//17 
s 2
f 117//18 118//18 115//18 
f 118//18 116//18 115//18 
s 1
f 119//19 120//19 117//17 
f 120//19 118//17 117//17 
f 120//19 119//19 121//20 
s 2
f 122//21 123//22 124//23 
f 123//22 122//21 125//24 
f 126//25 127//26 128//27 
f 127//26 126//25 129//28 
s 1
f 130//29 131//29 132//29 
s 2
f 131//30 130//31 133//32 
s 4
f 134//33 135//33 136//33 
s 1
f 107//15 112//15 134//34 
f 112//15 137//34 134//34 
s 4
f 137//33 135//33 134//33 
s 2
f 135//35 133//32 136//36 
f 136//36 133//32 130//31 
s 1
f 131//29 138//29 132//29 
s 2
f 138//37 129//28 132//38 
f 132//38 129//28 126//25 
f 127//26 125//24 128//27 
f 128//27 125//24 122//21 
f 123//22 121//39 124//23 
s 1
f 124//20 121//20 119//19 
f 139//40 140//41 141//42 
f 142//43 143//44 144//45 
f 143//44 142//43 145//46 
s 2
f 146//47 147//47 148//47 
s 1
f 146//48 149//49 147//50 
f 147//50 149//49 150//51 
f 149//49 151//52 150//51 
f 152//53 153//54 154//55 
f 153//54 152//53 155//56 
s 2
f 156//57 157//57 158//58 
f 157//57 155//58 158//58 
s 1
f 158//59 155//56 152//53 
s 2
f 153//60 150//60 154//60 
f 147//47 145//47 148//47 
s 1
f 148//61 145//46 142//43 
f 143//44 159//62 144//45 
f 159//62 141//42 144//45 
f 141//42 140//41 144//45 
s 2
f 150//60 151//60 154//60 
f 160//17 161//17 156//57 
f 161//17 157//57 156//57 
s 1
f 162//16 163//16 160//16 
f 163//16 161//16 160//16 
s 2
f 164//17 165//17 162//17 
f 165//17 163//17 162//17 
s 4
f 166//18 167//18 164//18 
f 167//18 168//18 164//18 
f 164//18 168//18 165//18 
f 169//18 165//18 170//18 
f 170//18 165//18 168//18 
s 1
f 166//14 140//41 167//14 
f 167//14 140//41 168//14 
f 140//41 139//40 168//14 
f 169//14 170//14 171//14 
f 170//14 168//14 171//14 
f 168//14 139//40 171//14 
s 8
f 137//63 112//63 120//63 
f 137//63 120//63 121//63 
f 137//63 121//63 123//63 
f 137//63 123//63 135//63 
f 111//63 118//63 110//63 
f 111//63 114//63 118//63 
f 114//63 116//63 118//63 
f 118//63 120//63 110//63 
f 123//63 125//63 135//63 
f 135//63 125//63 133//63 
f 129//63 131//63 127//63 
f 129//63 138//63 131//63 
f 131//63 133//63 127//63 
f 127//63 133//63 125//63 
f 141//63 155//63 139//63 
f 141//63 159//63 155//63 
f 155//63 159//63 153//63 
f 145//63 150//63 143//63 
f 145//63 147//63 150//63 
f 150//63 153//63 143//63 
f 143//63 153//63 159//63 
f 155//63 157//63 139//63 
f 139//63 157//63 171//63 
f 163//63 165//63 161//63 
f 165//63 169//63 161//63 
f 169//63 171//63 161//63 
f 161//63 171//63 157//63 
f 120//63 112//63 110//63 
f 134//64 124//64 107//64 
f 124//64 134//64 122//64 
f 130//64 128//64 136//64 
f 132//64 126//64 130//64 
f 126//64 128//64 130//64 
f 128//64 122//64 136//64 
f 136//64 122//64 134//64 
f 124//64 119//64 107//64 
f 119//64 117//64 107//64 
f 115//64 113//64 117//64 
f 113//64 105//64 117//64 
f 105//64 107//64 117//64 
f 166//64 160//64 140//64 
f 166//64 164//64 160//64 
f 164//64 162//64 160//64 
f 160//64 156//64 140//64 
f 156//64 158//64 140//64 
f 140//64 158//64 144//64 
f 158//64 152//64 144//64 
f 151//64 142//64 154//64 
f 142//64 151//64 148//64 
f 146//64 148//64 149//64 
f 149//64 148//64 151//64 
f 142//64 144//64 154//64 
f 144//64 152//64 154//64 
# 126 faces

