# 3ds Max Wavefront OBJ Exporter v0.97b - (c)2007 guruware
# File Created: 19.02.2015 14:17:20

#
# object nod3
#

v  4.6125 0.1000 -2.5528
v  4.3264 0.1000 -2.7250
v  4.3264 0.2000 -2.7250
v  4.6125 0.2000 -2.5528
v  2.7833 0.1000 -4.4458
v  2.7833 0.2000 -4.4458
v  1.0097 0.1000 -4.4486
v  1.0097 0.2000 -4.4486
v  0.6819 0.1000 -4.4486
v  0.6819 0.2000 -4.4486
v  0.4250 0.1000 -4.0083
v  0.4250 0.2000 -4.0083
v  0.2708 0.1000 -3.8792
v  0.2708 0.2000 -3.8792
v  0.2681 0.1000 -3.7903
v  0.2681 0.2000 -3.7903
v  0.1611 0.1000 -3.5958
v  0.1611 0.2000 -3.5958
v  0.2347 0.1000 -3.4778
v  0.2347 0.2000 -3.4778
v  0.3806 0.1000 -3.4625
v  0.3806 0.2000 -3.4625
v  0.3778 0.1000 -2.9972
v  0.3778 0.2000 -2.9972
v  0.3042 0.1000 -2.8653
v  0.3042 0.2000 -2.8653
v  0.2056 0.1000 -2.2000
v  0.2056 0.2000 -2.2000
v  0.0069 0.1000 -1.9208
v  0.0069 0.2000 -1.9208
v  0.0139 0.1000 -1.6819
v  0.0139 0.2000 -1.6819
v  0.4319 0.1000 -1.3222
v  0.4319 0.2000 -1.3222
v  0.6819 0.1000 -1.3333
v  0.6819 0.2000 -1.3333
v  0.9653 0.1000 -1.5569
v  0.9653 0.2000 -1.5569
v  1.2403 0.1000 -1.5611
v  1.2403 0.2000 -1.5611
v  1.6153 0.1000 -1.6931
v  1.6153 0.2000 -1.6931
v  1.9944 0.1000 -1.9347
v  1.9944 0.2000 -1.9347
v  2.1514 0.1000 -1.8292
v  2.1514 0.2000 -1.8292
v  2.1292 0.1000 -1.5792
v  2.1292 0.2000 -1.5792
v  2.2736 0.1000 -1.5528
v  2.2736 0.2000 -1.5528
v  2.4014 0.1000 -1.6972
v  2.4014 0.2000 -1.6972
v  2.6917 0.1000 -1.5903
v  2.6917 0.2000 -1.5903
v  2.8764 0.1000 -1.9611
v  2.8764 0.2000 -1.9611
v  3.0708 0.1000 -1.5944
v  3.0708 0.2000 -1.5944
v  3.0736 0.1000 -1.6708
v  3.0736 0.2000 -1.6708
v  3.1708 0.1000 -1.6569
v  3.1708 0.2000 -1.6569
v  3.3069 0.1000 -1.5431
v  3.3069 0.2000 -1.5431
v  3.4347 0.1000 -1.6056
v  3.4347 0.2000 -1.6056
v  3.5042 0.1000 -1.5597
v  3.5042 0.2000 -1.5597
v  3.6514 0.1000 -1.6014
v  3.6514 0.2000 -1.6014
v  3.7472 0.1000 -1.5347
v  3.7472 0.2000 -1.5347
v  4.0958 0.1000 -1.6889
v  4.0958 0.2000 -1.6889
v  4.8528 0.1000 -1.4653
v  4.8528 0.2000 -1.4653
v  5.2236 0.1000 -1.4542
v  5.2236 0.2000 -1.4542
v  5.3250 0.1000 -1.4958
v  5.3250 0.2000 -1.4958
v  4.9139 0.1000 -2.1500
v  4.9139 0.2000 -2.1500
v  5.0194 0.1000 -2.4250
v  5.0194 0.2000 -2.4250
# 84 vertices

vn 0.5157 0.0000 -0.8568
vn 0.7445 0.0000 -0.6676
vn 0.0016 0.0000 -1.0000
vn 0.0000 0.0000 -1.0000
vn -0.8637 0.0000 -0.5040
vn -0.6422 0.0000 -0.7665
vn -0.9995 0.0000 -0.0312
vn -0.8762 0.0000 -0.4819
vn -0.8486 0.0000 0.5291
vn -0.1042 0.0000 0.9946
vn -1.0000 0.0000 -0.0060
vn -0.8733 0.0000 -0.4872
vn -0.9892 0.0000 -0.1466
vn -0.8148 0.0000 -0.5797
vn -0.9996 0.0000 0.0291
vn -0.6522 0.0000 0.7580
vn 0.0444 0.0000 0.9990
vn 0.6195 0.0000 0.7850
vn 0.0151 0.0000 0.9999
vn 0.3319 0.0000 0.9433
vn 0.5375 0.0000 0.8433
vn -0.5581 0.0000 0.8298
vn -0.9961 0.0000 -0.0885
vn -0.1797 0.0000 0.9837
vn 0.7490 0.0000 0.6626
vn -0.3457 0.0000 0.9383
vn 0.8951 0.0000 0.4459
vn -0.8835 0.0000 0.4685
vn 0.9993 0.0000 0.0363
vn -0.1414 0.0000 0.9899
vn -0.6417 0.0000 0.7669
vn 0.4394 0.0000 0.8983
vn -0.5508 0.0000 0.8346
vn 0.2723 0.0000 0.9622
vn -0.5711 0.0000 0.8209
vn 0.4044 0.0000 0.9146
vn -0.2833 0.0000 0.9590
vn -0.0299 0.0000 0.9996
vn 0.3801 0.0000 0.9249
vn 0.8467 0.0000 -0.5321
vn 0.9336 0.0000 0.3583
vn 0.2996 0.0000 -0.9541
vn 0.0000 -1.0000 -0.0000
vn 0.0000 1.0000 -0.0000
# 44 vertex normals

g nod3
s 1
f 1//1 2//1 3//1 4//1 
s 4
f 2//2 5//2 6//2 3//2 
s 2
f 5//3 7//3 8//3 6//3 
s 4
f 7//4 9//4 10//4 8//4 
s 2
f 9//5 11//5 12//5 10//5 
s 4
f 11//6 13//6 14//6 12//6 
s 2
f 13//7 15//7 16//7 14//7 
s 4
f 15//8 17//8 18//8 16//8 
s 2
f 17//9 19//9 20//9 18//9 
s 4
f 19//10 21//10 22//10 20//10 
s 2
f 21//11 23//11 24//11 22//11 
s 4
f 23//12 25//12 26//12 24//12 
s 2
f 25//13 27//13 28//13 26//13 
s 4
f 27//14 29//14 30//14 28//14 
s 2
f 29//15 31//15 32//15 30//15 
s 4
f 31//16 33//16 34//16 32//16 
s 2
f 33//17 35//17 36//17 34//17 
s 4
f 35//18 37//18 38//18 36//18 
s 2
f 37//19 39//19 40//19 38//19 
s 4
f 39//20 41//20 42//20 40//20 
s 2
f 41//21 43//21 44//21 42//21 
s 4
f 43//22 45//22 46//22 44//22 
s 2
f 45//23 47//23 48//23 46//23 
s 4
f 47//24 49//24 50//24 48//24 
s 2
f 49//25 51//25 52//25 50//25 
s 4
f 51//26 53//26 54//26 52//26 
s 2
f 53//27 55//27 56//27 54//27 
s 4
f 55//28 57//28 58//28 56//28 
s 2
f 57//29 59//29 60//29 58//29 
s 4
f 59//30 61//30 62//30 60//30 
s 2
f 61//31 63//31 64//31 62//31 
s 4
f 63//32 65//32 66//32 64//32 
s 2
f 65//33 67//33 68//33 66//33 
s 4
f 67//34 69//34 70//34 68//34 
s 2
f 69//35 71//35 72//35 70//35 
s 4
f 71//36 73//36 74//36 72//36 
s 2
f 73//37 75//37 76//37 74//37 
s 4
f 75//38 77//38 78//38 76//38 
s 2
f 77//39 79//39 80//39 78//39 
s 4
f 79//40 81//40 82//40 80//40 
s 2
f 81//41 83//41 84//41 82//41 
s 4
f 83//42 1//42 4//42 84//42 
s 16
f 55//43 5//43 59//43 57//43 
f 77//43 75//43 81//43 79//43 
f 73//43 1//43 81//43 75//43 
f 81//43 1//43 83//43 
f 73//43 69//43 2//43 1//43 
f 45//43 51//43 49//43 47//43 
f 51//43 7//43 55//43 53//43 
f 61//43 5//43 65//43 63//43 
f 15//43 21//43 19//43 17//43 
f 7//43 43//43 11//43 9//43 
f 69//43 73//43 71//43 
f 69//43 67//43 5//43 2//43 
f 65//43 5//43 67//43 
f 59//43 5//43 61//43 
f 55//43 7//43 5//43 
f 45//43 43//43 7//43 51//43 
f 41//43 13//43 11//43 43//43 
f 41//43 21//43 15//43 13//43 
f 41//43 39//43 23//43 21//43 
f 37//43 25//43 23//43 39//43 
f 37//43 35//43 27//43 25//43 
f 33//43 31//43 27//43 35//43 
f 31//43 29//43 27//43 
f 56//44 58//44 60//44 6//44 
f 78//44 80//44 82//44 76//44 
f 74//44 76//44 82//44 4//44 
f 82//44 84//44 4//44 
f 74//44 4//44 3//44 70//44 
f 46//44 48//44 50//44 52//44 
f 52//44 54//44 56//44 8//44 
f 62//44 64//44 66//44 6//44 
f 16//44 18//44 20//44 22//44 
f 8//44 10//44 12//44 44//44 
f 70//44 72//44 74//44 
f 70//44 3//44 6//44 68//44 
f 66//44 68//44 6//44 
f 60//44 62//44 6//44 
f 56//44 6//44 8//44 
f 46//44 52//44 8//44 44//44 
f 42//44 44//44 12//44 14//44 
f 42//44 14//44 16//44 22//44 
f 42//44 22//44 24//44 40//44 
f 38//44 40//44 24//44 26//44 
f 38//44 26//44 28//44 36//44 
f 34//44 36//44 28//44 32//44 
f 32//44 28//44 30//44 
# 76 polygons - 12 triangles

