# 3ds Max Wavefront OBJ Exporter v0.97b - (c)2007 guruware
# File Created: 19.02.2015 14:17:42

#
# object nod4
#

v  11.2194 0.1000 -4.3111
v  11.2000 0.1000 -4.3472
v  11.2000 0.2000 -4.3472
v  11.2194 0.2000 -4.3111
v  9.5153 0.1000 -4.3528
v  9.5153 0.2000 -4.3528
v  9.5361 0.1000 -2.7264
v  9.5361 0.2000 -2.7264
v  9.1722 0.1000 -2.3972
v  9.1722 0.2000 -2.3972
v  6.8556 0.1000 -2.4847
v  6.8556 0.2000 -2.4847
v  6.6750 0.1000 -1.3542
v  6.6750 0.2000 -1.3542
v  6.7333 0.1000 -1.3333
v  6.7333 0.2000 -1.3333
v  6.7653 0.1000 -1.1972
v  6.7653 0.2000 -1.1972
v  6.9944 0.1000 -1.2639
v  6.9944 0.2000 -1.2639
v  7.2736 0.1000 -1.2486
v  7.2736 0.2000 -1.2486
v  7.4597 0.1000 -1.0250
v  7.4597 0.2000 -1.0250
v  7.6111 0.1000 -1.1528
v  7.6111 0.2000 -1.1528
v  7.8208 0.1000 -1.1125
v  7.8208 0.2000 -1.1125
v  7.9569 0.1000 -0.9583
v  7.9569 0.2000 -0.9583
v  8.1875 0.1000 -0.7958
v  8.1875 0.2000 -0.7958
v  8.8750 0.1000 -0.8111
v  8.8750 0.2000 -0.8111
v  8.9500 0.1000 -0.7292
v  8.9500 0.2000 -0.7292
v  9.0361 0.1000 -0.7778
v  9.0361 0.2000 -0.7778
v  9.3417 0.1000 -0.7681
v  9.3417 0.2000 -0.7681
v  9.5986 0.1000 -0.5500
v  9.5986 0.2000 -0.5500
v  9.6111 0.1000 -0.1792
v  9.6111 0.2000 -0.1792
v  9.9639 0.1000 -0.0069
v  9.9639 0.2000 -0.0069
v  10.2083 0.1000 -0.1861
v  10.2083 0.2000 -0.1861
v  10.2014 0.1000 -0.4722
v  10.2014 0.2000 -0.4722
v  10.3069 0.1000 -0.6458
v  10.3069 0.2000 -0.6458
v  10.3306 0.1000 -0.8917
v  10.3306 0.2000 -0.8917
v  10.5972 0.1000 -0.9250
v  10.5972 0.2000 -0.9250
v  10.8667 0.1000 -0.7819
v  10.8667 0.2000 -0.7819
v  11.0806 0.1000 -0.3042
v  11.0806 0.2000 -0.3042
v  11.3375 0.1000 -0.3042
v  11.3375 0.2000 -0.3042
v  11.4250 0.1000 -0.3625
v  11.4250 0.2000 -0.3625
v  11.5139 0.1000 -0.3778
v  11.5139 0.2000 -0.3778
v  11.9389 0.1000 -0.2125
v  11.9389 0.2000 -0.2125
v  12.4500 0.1000 -0.5028
v  12.4500 0.2000 -0.5028
v  12.5750 0.1000 -0.4778
v  12.5750 0.2000 -0.4778
v  12.7361 0.1000 -0.5764
v  12.7361 0.2000 -0.5764
v  12.7875 0.1000 -0.5806
v  12.7875 0.2000 -0.5806
v  12.7986 0.1000 -0.6431
v  12.7986 0.2000 -0.6431
v  12.9125 0.1000 -0.6389
v  12.9125 0.2000 -0.6389
v  12.9903 0.1000 -0.6722
v  12.9903 0.2000 -0.6722
v  13.0083 0.1000 -0.7597
v  13.0083 0.2000 -0.7597
v  12.7028 0.1000 -1.1569
v  12.7028 0.2000 -1.1569
v  12.6556 0.1000 -1.4875
v  12.6556 0.2000 -1.4875
v  12.4528 0.1000 -2.1569
v  12.4528 0.2000 -2.1569
v  11.9861 0.1000 -2.4833
v  11.9861 0.2000 -2.4833
v  11.9389 0.1000 -2.5958
v  11.9389 0.2000 -2.5958
v  11.8611 0.1000 -2.6000
v  11.8611 0.2000 -2.6000
v  11.5347 0.1000 -3.0042
v  11.5347 0.2000 -3.0042
v  11.5500 0.1000 -3.5250
v  11.5500 0.2000 -3.5250
v  11.4583 0.1000 -3.5597
v  11.4583 0.2000 -3.5597
v  11.2972 0.1000 -3.7500
v  11.2972 0.2000 -3.7500
v  11.3111 0.1000 -4.1875
v  11.3111 0.2000 -4.1875
v  11.2417 0.1000 -4.2569
v  11.2417 0.2000 -4.2569
# 108 vertices

vn 0.8805 0.0000 -0.4741
vn 0.0033 0.0000 -1.0000
vn -0.9999 0.0000 0.0128
vn -0.6708 0.0000 -0.7416
vn 0.0377 0.0000 -0.9993
vn -0.9875 0.0000 -0.1577
vn -0.3363 0.0000 0.9417
vn -0.9735 0.0000 0.2285
vn 0.2793 0.0000 0.9602
vn -0.0546 0.0000 0.9985
vn -0.7686 0.0000 0.6397
vn 0.6450 0.0000 0.7642
vn -0.1886 0.0000 0.9821
vn -0.7496 0.0000 0.6618
vn -0.5761 0.0000 0.8174
vn 0.0222 0.0000 0.9998
vn -0.7377 0.0000 0.6752
vn 0.4916 0.0000 0.8708
vn -0.0318 0.0000 0.9995
vn -0.6470 0.0000 0.7624
vn -0.9994 0.0000 0.0337
vn -0.4387 0.0000 0.8986
vn 0.5912 0.0000 0.8066
vn 0.9997 0.0000 -0.0243
vn 0.8545 0.0000 0.5195
vn 0.9954 0.0000 0.0956
vn 0.1240 0.0000 0.9923
vn -0.4689 0.0000 0.8832
vn -0.9127 0.0000 0.4086
vn 0.0000 0.0000 1.0000
vn 0.5547 0.0000 0.8321
vn 0.1694 0.0000 0.9855
vn -0.3624 0.0000 0.9320
vn 0.4938 0.0000 0.8695
vn -0.1961 0.0000 0.9806
vn 0.5220 0.0000 0.8529
vn 0.0808 0.0000 0.9967
vn 0.9846 0.0000 0.1750
vn -0.0366 0.0000 0.9993
vn 0.3939 0.0000 0.9191
vn 0.9794 0.0000 0.2021
vn 0.7926 0.0000 -0.6097
vn 0.9899 0.0000 -0.1414
vn 0.9571 0.0000 -0.2899
vn 0.5731 0.0000 -0.8195
vn 0.9221 0.0000 -0.3870
vn 0.0535 0.0000 -0.9986
vn 0.7780 0.0000 -0.6283
vn 0.9996 0.0000 0.0293
vn 0.3542 0.0000 -0.9352
vn 0.7632 0.0000 -0.6462
vn 0.9995 0.0000 0.0317
vn 0.7071 0.0000 -0.7071
vn 0.9252 0.0000 -0.3796
vn 0.0000 -1.0000 -0.0000
vn 0.0000 1.0000 -0.0000
# 56 vertex normals

g nod4
s 1
f 1//1 2//1 3//1 4//1 
s 4
f 2//2 5//2 6//2 3//2 
s 2
f 5//3 7//3 8//3 6//3 
s 4
f 7//4 9//4 10//4 8//4 
s 2
f 9//5 11//5 12//5 10//5 
s 4
f 11//6 13//6 14//6 12//6 
s 2
f 13//7 15//7 16//7 14//7 
s 4
f 15//8 17//8 18//8 16//8 
s 2
f 17//9 19//9 20//9 18//9 
s 4
f 19//10 21//10 22//10 20//10 
s 2
f 21//11 23//11 24//11 22//11 
s 4
f 23//12 25//12 26//12 24//12 
s 2
f 25//13 27//13 28//13 26//13 
s 4
f 27//14 29//14 30//14 28//14 
s 2
f 29//15 31//15 32//15 30//15 
s 4
f 31//16 33//16 34//16 32//16 
s 2
f 33//17 35//17 36//17 34//17 
s 4
f 35//18 37//18 38//18 36//18 
s 2
f 37//19 39//19 40//19 38//19 
s 4
f 39//20 41//20 42//20 40//20 
s 2
f 41//21 43//21 44//21 42//21 
s 4
f 43//22 45//22 46//22 44//22 
s 2
f 45//23 47//23 48//23 46//23 
s 4
f 47//24 49//24 50//24 48//24 
s 2
f 49//25 51//25 52//25 50//25 
s 4
f 51//26 53//26 54//26 52//26 
s 2
f 53//27 55//27 56//27 54//27 
s 4
f 55//28 57//28 58//28 56//28 
s 2
f 57//29 59//29 60//29 58//29 
s 4
f 59//30 61//30 62//30 60//30 
s 2
f 61//31 63//31 64//31 62//31 
s 4
f 63//32 65//32 66//32 64//32 
s 2
f 65//33 67//33 68//33 66//33 
s 4
f 67//34 69//34 70//34 68//34 
s 2
f 69//35 71//35 72//35 70//35 
s 4
f 71//36 73//36 74//36 72//36 
s 2
f 73//37 75//37 76//37 74//37 
s 4
f 75//38 77//38 78//38 76//38 
s 2
f 77//39 79//39 80//39 78//39 
s 4
f 79//40 81//40 82//40 80//40 
s 2
f 81//41 83//41 84//41 82//41 
s 4
f 83//42 85//42 86//42 84//42 
s 2
f 85//43 87//43 88//43 86//43 
s 4
f 87//44 89//44 90//44 88//44 
s 2
f 89//45 91//45 92//45 90//45 
s 4
f 91//46 93//46 94//46 92//46 
s 2
f 93//47 95//47 96//47 94//47 
s 4
f 95//48 97//48 98//48 96//48 
s 2
f 97//49 99//49 100//49 98//49 
s 4
f 99//50 101//50 102//50 100//50 
s 2
f 101//51 103//51 104//51 102//51 
s 4
f 103//52 105//52 106//52 104//52 
s 2
f 105//53 107//53 108//53 106//53 
s 4
f 107//54 1//54 4//54 108//54 
s 16
f 15//55 9//55 19//55 17//55 
f 2//55 1//55 7//55 5//55 
f 107//55 105//55 7//55 1//55 
f 21//55 9//55 25//55 23//55 
f 103//55 101//55 7//55 105//55 
f 9//55 15//55 13//55 11//55 
f 9//55 21//55 19//55 
f 9//55 29//55 27//55 25//55 
f 9//55 33//55 31//55 29//55 
f 33//55 9//55 37//55 35//55 
f 9//55 53//55 39//55 37//55 
f 73//55 69//55 77//55 75//55 
f 97//55 7//55 101//55 99//55 
f 57//55 63//55 61//55 59//55 
f 91//55 57//55 95//55 93//55 
f 43//55 49//55 47//55 45//55 
f 41//55 51//55 49//55 43//55 
f 41//55 39//55 53//55 51//55 
f 7//55 97//55 53//55 9//55 
f 97//55 95//55 55//55 53//55 
f 95//55 57//55 55//55 
f 89//55 87//55 57//55 91//55 
f 87//55 65//55 63//55 57//55 
f 85//55 67//55 65//55 87//55 
f 85//55 83//55 69//55 67//55 
f 79//55 77//55 83//55 81//55 
f 77//55 69//55 83//55 
f 71//55 69//55 73//55 
f 16//56 18//56 20//56 10//56 
f 3//56 6//56 8//56 4//56 
f 108//56 4//56 8//56 106//56 
f 22//56 24//56 26//56 10//56 
f 104//56 106//56 8//56 102//56 
f 10//56 12//56 14//56 16//56 
f 10//56 20//56 22//56 
f 10//56 26//56 28//56 30//56 
f 10//56 30//56 32//56 34//56 
f 34//56 36//56 38//56 10//56 
f 10//56 38//56 40//56 54//56 
f 74//56 76//56 78//56 70//56 
f 98//56 100//56 102//56 8//56 
f 58//56 60//56 62//56 64//56 
f 92//56 94//56 96//56 58//56 
f 44//56 46//56 48//56 50//56 
f 42//56 44//56 50//56 52//56 
f 42//56 52//56 54//56 40//56 
f 8//56 10//56 54//56 98//56 
f 98//56 54//56 56//56 96//56 
f 96//56 56//56 58//56 
f 90//56 92//56 58//56 88//56 
f 88//56 58//56 64//56 66//56 
f 86//56 88//56 66//56 68//56 
f 86//56 68//56 70//56 84//56 
f 80//56 82//56 84//56 78//56 
f 78//56 84//56 70//56 
f 72//56 74//56 70//56 
# 102 polygons - 8 triangles

