# 3ds Max Wavefront OBJ Exporter v0.97b - (c)2007 guruware
# File Created: 19.02.2015 14:16:41

#
# object nod5
#

v  10.3972 0.1000 -6.6403
v  9.8861 0.1000 -6.6097
v  9.8861 0.2000 -6.6097
v  10.3972 0.2000 -6.6403
v  7.9278 0.1000 -5.4111
v  7.9278 0.2000 -5.4111
v  7.9208 0.1000 -4.5986
v  7.9208 0.2000 -4.5986
v  7.6083 0.1000 -4.2931
v  7.6083 0.2000 -4.2931
v  7.4694 0.1000 -4.2097
v  7.4694 0.2000 -4.2097
v  6.0875 0.1000 -4.1264
v  6.0875 0.2000 -4.1264
v  6.0778 0.1000 -2.9347
v  6.0778 0.2000 -2.9347
v  6.2375 0.1000 -2.5708
v  6.2375 0.2000 -2.5708
v  6.8556 0.1000 -2.4847
v  6.8556 0.2000 -2.4847
v  9.1722 0.1000 -2.3972
v  9.1722 0.2000 -2.3972
v  9.5361 0.1000 -2.7264
v  9.5361 0.2000 -2.7264
v  9.5153 0.1000 -4.3528
v  9.5153 0.2000 -4.3528
v  11.2000 0.1000 -4.3472
v  11.2000 0.2000 -4.3472
v  11.1653 0.1000 -4.4111
v  11.1653 0.2000 -4.4111
v  11.1819 0.1000 -4.5250
v  11.1819 0.2000 -4.5250
v  11.1278 0.1000 -4.6750
v  11.1278 0.2000 -4.6750
v  11.5764 0.1000 -4.6431
v  11.5764 0.2000 -4.6431
v  11.8264 0.1000 -4.4556
v  11.8264 0.2000 -4.4556
v  11.9389 0.1000 -4.3819
v  11.9389 0.2000 -4.3819
v  12.4944 0.1000 -4.4250
v  12.4944 0.2000 -4.4250
v  12.6556 0.1000 -4.6403
v  12.6556 0.2000 -4.6403
v  12.5083 0.1000 -5.2014
v  12.5083 0.2000 -5.2014
v  12.5056 0.1000 -5.7750
v  12.5056 0.2000 -5.7750
v  12.3736 0.1000 -5.8736
v  12.3736 0.2000 -5.8736
v  12.2292 0.1000 -5.8597
v  12.2292 0.2000 -5.8597
v  12.1458 0.1000 -5.9986
v  12.1458 0.2000 -5.9986
v  12.1333 0.1000 -6.0903
v  12.1333 0.2000 -6.0903
v  12.2014 0.1000 -6.2000
v  12.2014 0.2000 -6.2000
v  12.1958 0.1000 -6.3292
v  12.1958 0.2000 -6.3292
v  12.0903 0.1000 -6.4000
v  12.0903 0.2000 -6.4000
v  11.8806 0.1000 -6.3139
v  11.8806 0.2000 -6.3139
v  11.6569 0.1000 -6.4569
v  11.6569 0.2000 -6.4569
v  11.5764 0.1000 -6.6889
v  11.5764 0.2000 -6.6889
v  11.6194 0.1000 -6.8042
v  11.6194 0.2000 -6.8042
v  11.5806 0.1000 -6.9097
v  11.5806 0.2000 -6.9097
v  11.4097 0.1000 -7.0014
v  11.4097 0.2000 -7.0014
v  11.4097 0.1000 -7.0153
v  11.4097 0.2000 -7.0153
v  10.7556 0.1000 -6.9778
v  10.7556 0.2000 -6.9778
v  10.5056 0.1000 -6.8250
v  10.5056 0.2000 -6.8250
# 80 vertices

vn -0.0597 0.0000 -0.9982
vn -0.5220 0.0000 -0.8529
vn -1.0000 0.0000 -0.0085
vn -0.6991 0.0000 -0.7150
vn -0.5145 0.0000 -0.8575
vn -0.0602 0.0000 -0.9982
vn -1.0000 0.0000 -0.0082
vn -0.9157 0.0000 0.4019
vn -0.1380 0.0000 0.9904
vn -0.0377 0.0000 0.9993
vn 0.6708 0.0000 0.7416
vn 0.9999 0.0000 -0.0128
vn -0.0033 0.0000 1.0000
vn 0.8786 0.0000 -0.4775
vn 0.9895 0.0000 0.1448
vn 0.9406 0.0000 -0.3396
vn -0.0710 0.0000 0.9975
vn -0.6000 0.0000 0.8000
vn -0.5475 0.0000 0.8368
vn 0.0773 0.0000 0.9970
vn 0.8006 0.0000 0.5992
vn 0.9673 0.0000 -0.2538
vn 1.0000 0.0000 -0.0048
vn 0.5986 0.0000 -0.8010
vn -0.0957 0.0000 -0.9954
vn 0.8575 0.0000 -0.5145
vn 0.9908 0.0000 -0.1351
vn 0.8498 0.0000 0.5271
vn 0.9991 0.0000 -0.0430
vn 0.5572 0.0000 -0.8304
vn -0.3798 0.0000 -0.9251
vn 0.5389 0.0000 -0.8424
vn 0.9447 0.0000 -0.3281
vn 0.9368 0.0000 0.3499
vn 0.9383 0.0000 -0.3457
vn 0.4728 0.0000 -0.8812
vn 1.0000 0.0000 -0.0000
vn -0.0572 0.0000 -0.9984
vn -0.5215 0.0000 -0.8533
vn -0.8626 0.0000 -0.5059
vn 0.0000 -1.0000 -0.0000
vn 0.0000 1.0000 -0.0000
# 42 vertex normals

g nod5
s 1
f 1//1 2//1 3//1 4//1 
s 4
f 2//2 5//2 6//2 3//2 
s 2
f 5//3 7//3 8//3 6//3 
s 4
f 7//4 9//4 10//4 8//4 
s 2
f 9//5 11//5 12//5 10//5 
s 4
f 11//6 13//6 14//6 12//6 
s 2
f 13//7 15//7 16//7 14//7 
s 4
f 15//8 17//8 18//8 16//8 
s 2
f 17//9 19//9 20//9 18//9 
s 4
f 19//10 21//10 22//10 20//10 
s 2
f 21//11 23//11 24//11 22//11 
s 4
f 23//12 25//12 26//12 24//12 
s 2
f 25//13 27//13 28//13 26//13 
s 4
f 27//14 29//14 30//14 28//14 
s 2
f 29//15 31//15 32//15 30//15 
s 4
f 31//16 33//16 34//16 32//16 
s 2
f 33//17 35//17 36//17 34//17 
s 4
f 35//18 37//18 38//18 36//18 
s 2
f 37//19 39//19 40//19 38//19 
s 4
f 39//20 41//20 42//20 40//20 
s 2
f 41//21 43//21 44//21 42//21 
s 4
f 43//22 45//22 46//22 44//22 
s 2
f 45//23 47//23 48//23 46//23 
s 4
f 47//24 49//24 50//24 48//24 
s 2
f 49//25 51//25 52//25 50//25 
s 4
f 51//26 53//26 54//26 52//26 
s 2
f 53//27 55//27 56//27 54//27 
s 4
f 55//28 57//28 58//28 56//28 
s 2
f 57//29 59//29 60//29 58//29 
s 4
f 59//30 61//30 62//30 60//30 
s 2
f 61//31 63//31 64//31 62//31 
s 4
f 63//32 65//32 66//32 64//32 
s 2
f 65//33 67//33 68//33 66//33 
s 4
f 67//34 69//34 70//34 68//34 
s 2
f 69//35 71//35 72//35 70//35 
s 4
f 71//36 73//36 74//36 72//36 
s 2
f 73//37 75//37 76//37 74//37 
s 4
f 75//38 77//38 78//38 76//38 
s 2
f 77//39 79//39 80//39 78//39 
s 4
f 79//40 1//40 4//40 80//40 
s 16
f 25//41 31//41 29//41 27//41 
f 73//41 35//41 77//41 75//41 
f 11//41 17//41 15//41 13//41 
f 25//41 2//41 33//41 31//41 
f 11//41 21//41 19//41 17//41 
f 9//41 23//41 21//41 11//41 
f 9//41 7//41 25//41 23//41 
f 5//41 2//41 25//41 7//41 
f 1//41 35//41 33//41 2//41 
f 79//41 77//41 35//41 1//41 
f 59//41 57//41 63//41 61//41 
f 55//41 53//41 63//41 57//41 
f 45//41 51//41 49//41 47//41 
f 41//41 39//41 45//41 43//41 
f 37//41 35//41 45//41 39//41 
f 35//41 53//41 51//41 45//41 
f 69//41 67//41 73//41 71//41 
f 67//41 65//41 35//41 73//41 
f 65//41 63//41 53//41 35//41 
f 26//42 28//42 30//42 32//42 
f 74//42 76//42 78//42 36//42 
f 12//42 14//42 16//42 18//42 
f 26//42 32//42 34//42 3//42 
f 12//42 18//42 20//42 22//42 
f 10//42 12//42 22//42 24//42 
f 10//42 24//42 26//42 8//42 
f 6//42 8//42 26//42 3//42 
f 4//42 3//42 34//42 36//42 
f 80//42 4//42 36//42 78//42 
f 60//42 62//42 64//42 58//42 
f 56//42 58//42 64//42 54//42 
f 46//42 48//42 50//42 52//42 
f 42//42 44//42 46//42 40//42 
f 38//42 40//42 46//42 36//42 
f 36//42 46//42 52//42 54//42 
f 70//42 72//42 74//42 68//42 
f 68//42 74//42 36//42 66//42 
f 66//42 36//42 54//42 64//42 
# 78 polygons

