# 3ds Max Wavefront OBJ Exporter v0.97b - (c)2007 guruware
# File Created: 19.02.2015 14:14:09

#
# object Shape02
#

v  10.4444 0.1000 -9.4194
v  10.2528 0.1000 -9.7681
v  10.2528 0.2000 -9.7681
v  10.4444 0.2000 -9.4194
v  9.9083 0.1000 -9.7764
v  9.9083 0.2000 -9.7764
v  9.7750 0.1000 -9.7306
v  9.7750 0.2000 -9.7306
v  9.6875 0.1000 -9.8014
v  9.6875 0.2000 -9.8014
v  9.5292 0.1000 -9.8167
v  9.5292 0.2000 -9.8167
v  9.4486 0.1000 -9.9264
v  9.4486 0.2000 -9.9264
v  9.3417 0.1000 -9.9333
v  9.3417 0.2000 -9.9333
v  9.3056 0.1000 -9.7708
v  9.3056 0.2000 -9.7708
v  9.2236 0.1000 -9.5889
v  9.2236 0.2000 -9.5889
v  9.0514 0.1000 -9.7972
v  9.0514 0.2000 -9.7972
v  8.9194 0.1000 -9.5556
v  8.9194 0.2000 -9.5556
v  8.8417 0.1000 -9.5333
v  8.8417 0.2000 -9.5333
v  8.7861 0.1000 -9.4333
v  8.7861 0.2000 -9.4333
v  8.6139 0.1000 -9.4375
v  8.6139 0.2000 -9.4375
v  8.5847 0.1000 -9.4875
v  8.5847 0.2000 -9.4875
v  8.4194 0.1000 -9.6028
v  8.4194 0.2000 -9.6028
v  8.0708 0.1000 -9.6125
v  8.0708 0.2000 -9.6125
v  7.9667 0.1000 -9.4931
v  7.9667 0.2000 -9.4931
v  7.8208 0.1000 -9.3458
v  7.8208 0.2000 -9.3458
v  7.6306 0.1000 -9.3681
v  7.6306 0.2000 -9.3681
v  7.4458 0.1000 -9.3375
v  7.4458 0.2000 -9.3375
v  7.1861 0.1000 -9.0736
v  7.1861 0.2000 -9.0736
v  7.1958 0.1000 -8.6875
v  7.1958 0.2000 -8.6875
v  7.1111 0.1000 -8.5667
v  7.1111 0.2000 -8.5667
v  6.9611 0.1000 -8.6139
v  6.9611 0.2000 -8.6139
v  6.9431 0.1000 -8.5625
v  6.9431 0.2000 -8.5625
v  6.7694 0.1000 -8.6181
v  6.7694 0.2000 -8.6181
v  6.6333 0.1000 -8.8681
v  6.6333 0.2000 -8.8681
v  6.4764 0.1000 -8.8417
v  6.4764 0.2000 -8.8417
v  6.3069 0.1000 -8.8347
v  6.3069 0.2000 -8.8347
v  6.2153 0.1000 -8.7833
v  6.2153 0.2000 -8.7833
v  6.1236 0.1000 -8.7944
v  6.1236 0.2000 -8.7944
v  6.0639 0.1000 -8.7472
v  6.0639 0.2000 -8.7472
v  5.8181 0.1000 -9.0625
v  5.8181 0.2000 -9.0625
v  5.6681 0.1000 -9.0778
v  5.6681 0.2000 -9.0778
v  5.5944 0.1000 -8.9417
v  5.5944 0.2000 -8.9417
v  5.5181 0.1000 -8.9444
v  5.5181 0.2000 -8.9444
v  5.4500 0.1000 -8.8125
v  5.4500 0.2000 -8.8125
v  5.3694 0.1000 -8.8097
v  5.3694 0.2000 -8.8097
v  5.3042 0.1000 -8.6736
v  5.3042 0.2000 -8.6736
v  5.1653 0.1000 -8.6042
v  5.1653 0.2000 -8.6042
v  5.0181 0.1000 -8.5958
v  5.0181 0.2000 -8.5958
v  4.7681 0.1000 -8.5417
v  4.7681 0.2000 -8.5417
v  4.3708 0.1000 -8.2472
v  4.3708 0.2000 -8.2472
v  4.2722 0.1000 -8.0125
v  4.2722 0.2000 -8.0125
v  6.5458 0.1000 -8.0208
v  6.5458 0.2000 -8.0208
v  6.7236 0.1000 -8.0833
v  6.7236 0.2000 -8.0833
v  6.9556 0.1000 -7.5375
v  6.9556 0.2000 -7.5375
v  7.1667 0.1000 -7.4375
v  7.1667 0.2000 -7.4375
v  8.1778 0.1000 -8.0625
v  8.1778 0.2000 -8.0625
v  9.7972 0.1000 -8.0694
v  9.7972 0.2000 -8.0694
v  10.0292 0.1000 -7.8056
v  10.0292 0.2000 -7.8056
v  10.7903 0.1000 -7.7806
v  10.7903 0.2000 -7.7806
v  11.3153 0.1000 -8.0000
v  11.3153 0.2000 -8.0000
v  11.3069 0.1000 -8.2167
v  11.3069 0.2000 -8.2167
v  11.5944 0.1000 -8.4014
v  11.5944 0.2000 -8.4014
v  11.6083 0.1000 -8.4639
v  11.6083 0.2000 -8.4639
v  11.6569 0.1000 -8.5375
v  11.6569 0.2000 -8.5375
v  11.6597 0.1000 -8.9347
v  11.6597 0.2000 -8.9347
v  11.6083 0.1000 -9.1028
v  11.6083 0.2000 -9.1028
v  11.3403 0.1000 -9.3458
v  11.3403 0.2000 -9.3458
v  11.1042 0.1000 -9.3417
v  11.1042 0.2000 -9.3417
v  11.0347 0.1000 -9.4014
v  11.0347 0.2000 -9.4014
v  10.9875 0.1000 -9.3528
v  10.9875 0.2000 -9.3528
v  10.7708 0.1000 -9.4194
v  10.7708 0.2000 -9.4194
v  10.8111 0.1000 -9.5486
v  10.8111 0.2000 -9.5486
v  10.6972 0.1000 -9.5917
v  10.6972 0.2000 -9.5917
# 136 vertices

vn 0.8763 0.0000 -0.4818
vn 0.0242 0.0000 -0.9997
vn -0.3251 0.0000 -0.9457
vn 0.6292 0.0000 -0.7772
vn 0.0960 0.0000 -0.9954
vn 0.8061 0.0000 -0.5918
vn 0.0648 0.0000 -0.9979
vn -0.9762 0.0000 -0.2169
vn -0.9118 0.0000 -0.4107
vn 0.7707 0.0000 -0.6371
vn -0.8777 0.0000 -0.4792
vn -0.2747 0.0000 -0.9615
vn -0.8742 0.0000 -0.4856
vn 0.8638 0.0000 -0.5039
vn 0.5721 0.0000 -0.8202
vn 0.0279 0.0000 -0.9996
vn -0.7537 0.0000 -0.6573
vn -0.7104 0.0000 -0.7037
vn 0.1160 0.0000 -0.9932
vn -0.1632 0.0000 -0.9866
vn -0.7127 0.0000 -0.7015
vn -0.9997 0.0000 0.0252
vn -0.8188 0.0000 -0.5741
vn 0.3003 0.0000 -0.9538
vn -0.9435 0.0000 -0.3315
vn 0.3048 0.0000 -0.9524
vn 0.8783 0.0000 -0.4782
vn -0.1658 0.0000 -0.9862
vn -0.0410 0.0000 -0.9992
vn -0.4890 0.0000 -0.8723
vn 0.1203 0.0000 -0.9927
vn -0.6202 0.0000 -0.7844
vn 0.7886 0.0000 -0.6149
vn 0.1013 0.0000 -0.9949
vn -0.8796 0.0000 -0.4757
vn 0.0363 0.0000 -0.9993
vn -0.8887 0.0000 -0.4584
vn -0.0345 0.0000 -0.9994
vn -0.9017 0.0000 -0.4324
vn -0.4472 0.0000 -0.8944
vn -0.0565 0.0000 -0.9984
vn -0.2118 0.0000 -0.9773
vn -0.5955 0.0000 -0.8034
vn -0.9219 0.0000 -0.3873
vn 0.0037 0.0000 1.0000
vn 0.3317 0.0000 0.9434
vn -0.9204 0.0000 0.3911
vn -0.4281 0.0000 0.9037
vn 0.5258 0.0000 0.8506
vn 0.0043 0.0000 1.0000
vn -0.7511 0.0000 0.6602
vn -0.0328 0.0000 0.9995
vn 0.3857 0.0000 0.9226
vn 0.9993 0.0000 -0.0384
vn 0.5406 0.0000 0.8413
vn 0.9762 0.0000 0.2169
vn 0.8345 0.0000 0.5511
vn 1.0000 0.0000 0.0070
vn 0.9563 0.0000 -0.2924
vn 0.6717 0.0000 -0.7408
vn -0.0176 0.0000 -0.9998
vn 0.6520 0.0000 -0.7582
vn -0.7173 0.0000 -0.6968
vn 0.2941 0.0000 -0.9558
vn 0.9547 0.0000 0.2977
vn 0.3536 0.0000 -0.9354
vn -0.5631 0.0000 -0.8264
vn 0.0000 -1.0000 -0.0000
vn 0.0000 1.0000 -0.0000
# 69 vertex normals

g Shape02
s 1
f 1//1 2//1 3//1 4//1 
s 4
f 2//2 5//2 6//2 3//2 
s 2
f 5//3 7//3 8//3 6//3 
s 4
f 7//4 9//4 10//4 8//4 
s 2
f 9//5 11//5 12//5 10//5 
s 4
f 11//6 13//6 14//6 12//6 
s 2
f 13//7 15//7 16//7 14//7 
s 4
f 15//8 17//8 18//8 16//8 
s 2
f 17//9 19//9 20//9 18//9 
s 4
f 19//10 21//10 22//10 20//10 
s 2
f 21//11 23//11 24//11 22//11 
s 4
f 23//12 25//12 26//12 24//12 
s 2
f 25//13 27//13 28//13 26//13 
s 4
f 27//2 29//2 30//2 28//2 
s 2
f 29//14 31//14 32//14 30//14 
s 4
f 31//15 33//15 34//15 32//15 
s 2
f 33//16 35//16 36//16 34//16 
s 4
f 35//17 37//17 38//17 36//17 
s 2
f 37//18 39//18 40//18 38//18 
s 4
f 39//19 41//19 42//19 40//19 
s 2
f 41//20 43//20 44//20 42//20 
s 4
f 43//21 45//21 46//21 44//21 
s 2
f 45//22 47//22 48//22 46//22 
s 4
f 47//23 49//23 50//23 48//23 
s 2
f 49//24 51//24 52//24 50//24 
s 4
f 51//25 53//25 54//25 52//25 
s 2
f 53//26 55//26 56//26 54//26 
s 4
f 55//27 57//27 58//27 56//27 
s 2
f 57//28 59//28 60//28 58//28 
s 4
f 59//29 61//29 62//29 60//29 
s 2
f 61//30 63//30 64//30 62//30 
s 4
f 63//31 65//31 66//31 64//31 
s 2
f 65//32 67//32 68//32 66//32 
s 4
f 67//33 69//33 70//33 68//33 
s 2
f 69//34 71//34 72//34 70//34 
s 4
f 71//35 73//35 74//35 72//35 
s 2
f 73//36 75//36 76//36 74//36 
s 4
f 75//37 77//37 78//37 76//37 
s 2
f 77//38 79//38 80//38 78//38 
s 4
f 79//39 81//39 82//39 80//39 
s 2
f 81//40 83//40 84//40 82//40 
s 4
f 83//41 85//41 86//41 84//41 
s 2
f 85//42 87//42 88//42 86//42 
s 4
f 87//43 89//43 90//43 88//43 
s 2
f 89//44 91//44 92//44 90//44 
s 4
f 91//45 93//45 94//45 92//45 
s 2
f 93//46 95//46 96//46 94//46 
s 4
f 95//47 97//47 98//47 96//47 
s 2
f 97//48 99//48 100//48 98//48 
s 4
f 99//49 101//49 102//49 100//49 
s 2
f 101//50 103//50 104//50 102//50 
s 4
f 103//51 105//51 106//51 104//51 
s 2
f 105//52 107//52 108//52 106//52 
s 4
f 107//53 109//53 110//53 108//53 
s 2
f 109//54 111//54 112//54 110//54 
s 4
f 111//55 113//55 114//55 112//55 
s 2
f 113//56 115//56 116//56 114//56 
s 4
f 115//57 117//57 118//57 116//57 
s 2
f 117//58 119//58 120//58 118//58 
s 4
f 119//59 121//59 122//59 120//59 
s 2
f 121//60 123//60 124//60 122//60 
s 4
f 123//61 125//61 126//61 124//61 
s 2
f 125//62 127//62 128//62 126//62 
s 4
f 127//63 129//63 130//63 128//63 
s 2
f 129//64 131//64 132//64 130//64 
s 4
f 131//65 133//65 134//65 132//65 
s 2
f 133//66 135//66 136//66 134//66 
s 4
f 135//67 1//67 4//67 136//67 
s 16
f 89//68 87//68 93//68 91//68 
f 85//68 83//68 93//68 87//68 
f 81//68 79//68 93//68 83//68 
f 19//68 103//68 23//68 21//68 
f 49//68 95//68 53//68 51//68 
f 77//68 75//68 93//68 79//68 
f 131//68 1//68 135//68 133//68 
f 125//68 103//68 129//68 127//68 
f 73//68 71//68 93//68 75//68 
f 13//68 11//68 17//68 15//68 
f 69//68 67//68 93//68 71//68 
f 65//68 63//68 93//68 67//68 
f 63//68 61//68 95//68 93//68 
f 59//68 57//68 95//68 61//68 
f 55//68 53//68 95//68 57//68 
f 107//68 103//68 111//68 109//68 
f 49//68 99//68 97//68 95//68 
f 49//68 47//68 101//68 99//68 
f 1//68 7//68 5//68 2//68 
f 45//68 43//68 101//68 47//68 
f 41//68 39//68 101//68 43//68 
f 39//68 37//68 103//68 101//68 
f 35//68 33//68 103//68 37//68 
f 11//68 103//68 19//68 17//68 
f 103//68 107//68 105//68 
f 23//68 103//68 27//68 25//68 
f 111//68 125//68 115//68 113//68 
f 121//68 119//68 125//68 123//68 
f 117//68 115//68 125//68 119//68 
f 103//68 125//68 111//68 
f 103//68 1//68 131//68 129//68 
f 103//68 9//68 7//68 1//68 
f 103//68 11//68 9//68 
f 103//68 33//68 29//68 27//68 
f 31//68 29//68 33//68 
f 90//69 92//69 94//69 88//69 
f 86//69 88//69 94//69 84//69 
f 82//69 84//69 94//69 80//69 
f 20//69 22//69 24//69 104//69 
f 50//69 52//69 54//69 96//69 
f 78//69 80//69 94//69 76//69 
f 132//69 134//69 136//69 4//69 
f 126//69 128//69 130//69 104//69 
f 74//69 76//69 94//69 72//69 
f 14//69 16//69 18//69 12//69 
f 70//69 72//69 94//69 68//69 
f 66//69 68//69 94//69 64//69 
f 64//69 94//69 96//69 62//69 
f 60//69 62//69 96//69 58//69 
f 56//69 58//69 96//69 54//69 
f 108//69 110//69 112//69 104//69 
f 50//69 96//69 98//69 100//69 
f 50//69 100//69 102//69 48//69 
f 4//69 3//69 6//69 8//69 
f 46//69 48//69 102//69 44//69 
f 42//69 44//69 102//69 40//69 
f 40//69 102//69 104//69 38//69 
f 36//69 38//69 104//69 34//69 
f 12//69 18//69 20//69 104//69 
f 104//69 106//69 108//69 
f 24//69 26//69 28//69 104//69 
f 112//69 114//69 116//69 126//69 
f 122//69 124//69 126//69 120//69 
f 118//69 120//69 126//69 116//69 
f 104//69 112//69 126//69 
f 104//69 130//69 132//69 4//69 
f 104//69 4//69 8//69 10//69 
f 104//69 10//69 12//69 
f 104//69 28//69 30//69 34//69 
f 32//69 34//69 30//69 
# 130 polygons - 8 triangles

