<svg width="64000" height="30670"><path d="M4988.100000000006,70425.59999999986L4513.299999999988,70337.3999999999L3855,69802.19999999995L3785.000000000029,69576.29999999993L3862.600000000035,69341.69999999984L3707.500000000029,69017.25L3567.5,68722.79999999993L3537.2000000000407,68203.04999999993L3556.2000000000116,67833.29999999993L3646.899999999994,67419.90000000002L3641.3000000000175,67163.09999999986L3433.2000000000116,66848.3999999999L3471,66525.1499999999L3813.399999999994,66191.40000000002L4447.100000000035,65810.54999999993L4189.800000000047,65298.29999999993L4216.3000000000175,64560.44999999995L4346.799999999988,64180.34999999998L4273.100000000006,63972.14999999991L4441.400000000023,63429.74999999988L4823.500000000029,63011.99999999988L4747.8000000000175,62452.94999999995L4604.100000000035,61840.34999999998L4362.000000000029,61399.19999999984L4203.100000000035,61121.99999999988L3834.2000000000116,61231.79999999993L3681,61111.49999999988L3344.3000000000175,60714.29999999993L3117.2999999999884,60524.54999999993L3068.100000000006,60240.75L2928.100000000035,60207.74999999988L2589.600000000006,60254.69999999995L2271.8000000000466,60131.09999999998L2003.2000000000116,59859.75L1798.9000000000233,59755.34999999986L1409.2000000000407,59698.04999999993L928.7000000000116,59578.04999999993L314.0000000000291,59414.54999999993L208.10000000000582,59334.59999999998L157.0000000000291,59122.64999999991L206.20000000001164,58688.40000000002L0,58514.84999999998L73.70000000001164,58261.34999999998L646.9000000000233,57293.84999999998L1010.1000000000349,56746.49999999988L1352.5,56255.09999999998L1897.2000000000407,55444.19999999984L2462.7999999999884,54796.5L2928.100000000035,54358.19999999995L3646.899999999994,53909.84999999998L4469.799999999988,53610L5025.900000000023,53446.34999999986L5508.300000000047,53391.29999999993L5720.100000000006,53411.84999999998L6684.800000000047,52713L7524.700000000012,52014.74999999988L7577.700000000012,51298.34999999998L7573.900000000023,50546.69999999995L7433.900000000023,50303.24999999988L7449,49864.49999999988L7420.700000000012,49249.79999999993L7377.100000000035,49073.54999999993L7403.600000000006,48574.04999999993L7619.3000000000175,48312.44999999995L7492.5,48047.54999999993L7345.000000000029,47287.79999999993L7222.000000000029,47059.19999999995L7063.100000000035,46823.84999999998L6932.600000000035,46475.99999999988L7080.200000000012,45966.75L7256.100000000006,45680.69999999995L7360.100000000006,45481.5L7290.100000000006,45205.94999999995L6930.700000000041,44872.65000000002L6817.200000000012,44595.59999999986L6771.8000000000175,44344.19999999995L6427.600000000006,44160.75L6348.100000000006,44040.14999999991L5640.700000000012,42154.94999999995L5247.200000000012,41058.89999999991L5008.900000000052,40423.79999999993L4836.8000000000175,39989.99999999988L4704.3000000000175,39522.89999999991L4460.3000000000175,38779.79999999993L4269.299999999988,37956.89999999991L4055.5,37173.74999999988L4038.500000000029,36633.14999999991L3673.4000000000233,36237.29999999993L3673.4000000000233,35325.59999999986L3450.2000000000407,34833.29999999993L3306.500000000029,34058.99999999988L3319.7000000000116,33359.09999999986L3472.9000000000233,33244.04999999993L3675.3000000000175,33284.09999999998L4225.8000000000175,33472.64999999991L4433.800000000047,33618L4677.899999999994,33668.09999999986L5417.5,33526.19999999995L5608.5,33547.79999999993L6062.5,33766.64999999991L6174.100000000006,33818.39999999991L6259.200000000012,33654.74999999988L6605.399999999994,33314.09999999998L6828.600000000006,33257.39999999991L7061.300000000047,33337.49999999988L7176.600000000035,33459.29999999993L7301.5,33202.19999999995L7450.899999999994,33080.39999999991L7642.000000000029,33093.75L7967.3000000000175,33259.04999999993L8160.299999999988,33517.79999999993L8205.70000000004,33729.89999999991L8701.300000000047,33611.25L9261.200000000012,33526.19999999995L9382.200000000012,33274.04999999993L9860.800000000017,33152.24999999988L10365.899999999994,33032.09999999986L10551.200000000012,33110.39999999991L10619.300000000047,33357.44999999995L10695,33400.94999999984L10848.200000000012,33297.44999999995L11033.600000000035,33325.79999999993L11256.800000000017,33664.79999999993L11495.100000000006,33900.29999999993L11606.70000000004,33992.24999999988L11795.899999999994,33871.94999999984L11973.70000000004,33923.69999999995L12034.200000000012,34069.05000000005L12469.300000000017,33970.49999999988L12792.800000000047,33910.34999999998L13010.300000000017,33632.99999999988L13541.800000000017,33218.99999999988L14003.400000000023,32846.84999999998L14803.50000000003,32513.25L15100.50000000003,32371.649999999907L15333.100000000035,32371.649999999907L15518.5,32504.999999999884L15579.100000000035,32625L15520.399999999994,32830.19999999984L15456.100000000035,33005.39999999991L15594.200000000012,33016.94999999984L15736.100000000006,32701.79999999993L15891.200000000012,32565L16080.300000000017,32656.649999999907L16159.800000000017,32716.79999999993L16545.70000000001,32549.999999999884L16575.900000000023,32333.25L16430.29999999999,32081.699999999953L16354.600000000035,31840.199999999953L16294.100000000006,31503.749999999884L16190.00000000003,31357.349999999977L16154.100000000035,31052.849999999977L16617.5,30377.999999999884L17960.600000000035,30060.749999999884L18193.20000000004,30190.199999999953L18306.70000000001,30431.09999999986L18535.600000000006,30486L18872.300000000017,30492.599999999977L19110.600000000006,30457.650000000023L19332,30241.79999999993L19591.100000000035,29941.199999999837L19869.20000000001,29632.34999999986L20285.300000000017,29166.29999999993L20357.20000000001,28837.949999999953L20597.399999999994,28669.04999999993L20996.5,28486.79999999993L21163,28495.04999999993L21384.300000000047,28675.649999999907L21687.00000000003,28597.79999999993L22120.100000000035,28438.649999999907L22315,28422.149999999907L22577.900000000023,28165.499999999884L23317.50000000003,27925.499999999884L23591.79999999999,28051.199999999837L23642.900000000023,28256.54999999993L23661.800000000017,28375.79999999993L24019.300000000017,28496.699999999953L24234.899999999994,28881.150000000023L24331.400000000023,29333.699999999953L24102.50000000003,29829.899999999907L23682.600000000035,30032.400000000023L24017.400000000023,30331.5L24626.50000000003,30449.399999999907L25142.899999999994,30271.650000000023L25362.300000000017,30093.899999999907L25935.50000000003,30173.699999999837L25774.70000000004,29622.449999999953L25683.900000000052,29347.04999999993L25903.300000000017,29169.599999999977L25704.70000000001,28808.09999999986L25324.50000000003,28736.849999999977L25190.199999999983,28531.499999999884L25264,28230L25052.100000000006,27985.04999999993L24798.600000000006,28185.29999999993L24393.800000000017,28177.04999999993L24155.5,28102.499999999884L23862.300000000017,28132.34999999986L23697.70000000001,28034.699999999953L23555.899999999994,27715.349999999977L23576.70000000001,27465.599999999977L23909.600000000006,27133.199999999837L24047.70000000004,26797.79999999993L24227.400000000023,26523.75L24492.20000000001,26328.899999999907L24252,25886.699999999953L24320.100000000006,25636.04999999993L24596.20000000001,25527.149999999907L24762.70000000001,25093.79999999993L25035.100000000035,24566.849999999977L25735.00000000003,24132.449999999953L25725.50000000003,23560.349999999977L25617.70000000001,23235.149999999907L25517.400000000023,22460.399999999907L25574.20000000001,22142.400000000023L25619.600000000035,21164.399999999907L25534.50000000003,20601.59999999986L25736.900000000023,20287.799999999814L25982.800000000017,20230.5L26013.00000000003,19843.349999999977L26724.300000000017,19138.199999999953L26769.70000000001,18693.150000000023L27777.900000000023,18380.25L28277.20000000001,18231.899999999907L28801.20000000004,18399.749999999884L29020.600000000006,18108.149999999907L29506.800000000017,17800.499999999884L30108.300000000047,17704.5L30259.600000000006,17671.949999999953L30581.199999999983,16704.449999999953L30832.800000000017,16541.999999999884L30420.399999999994,16163.699999999837L30490.399999999994,15985.04999999993L31317.00000000003,15605.54999999993L31566.699999999983,15419.099999999977L31886.399999999994,15346.04999999993L32467.100000000006,15498.449999999837L32756.50000000003,15555.29999999993L32945.70000000004,15650.84999999986L33042.100000000006,15419.099999999977L33488.600000000006,15193.79999999993L33887.70000000004,15362.249999999884L34284.90000000005,15269.84999999986L34799.399999999994,15180.75L35022.600000000006,15094.949999999953L34954.50000000003,14707.79999999993L35470.90000000005,14353.199999999953L35489.899999999994,14003.84999999986L35758.50000000003,13775.849999999977L36286.20000000004,13497.749999999884L36524.50000000003,13462.199999999953L36505.600000000006,13242.449999999953L36051.70000000004,13056.749999999884L35523.899999999994,13005.149999999907L34701.100000000006,13018.04999999993L34209.20000000004,13060.04999999993L33919.80000000002,13063.199999999837L33399.70000000004,12900.149999999907L32773.50000000003,12701.54999999993L32607.100000000006,12535.34999999986L32656.300000000017,12362.84999999986L32932.40000000005,12299.84999999986L32975.90000000005,12112.79999999993L33560.399999999994,11790.449999999953L33691.00000000003,11568.149999999907L33586.90000000005,11143.04999999993L33651.19999999998,10867.949999999837L33848.00000000003,10657.199999999953L33446.899999999994,10309.949999999953L33456.399999999994,10020.599999999977L33694.69999999998,9725.099999999977L34137.399999999994,9397.649999999907L34489.20000000004,9033.449999999953L34610.30000000002,8855.399999999907L34504.30000000002,8512.349999999977L34485.40000000005,7810.949999999953L34504.30000000002,7372.5L34697.30000000002,7033.649999999907L34901.600000000006,6976.04999999993L35637.40000000005,7113.59999999986L35853.00000000003,7364.54999999993L36091.40000000005,7393.349999999977L36269.20000000004,7132.649999999907L36921.80000000002,6920.09999999986L36931.19999999998,6661.349999999977L37462.80000000002,5816.849999999977L37659.00000000003,5784.449999999953L37768.00000000003,5713.04999999993L37982.899999999994,5450.25L38397.50000000003,5229.59999999986L38780.399999999994,5192.699999999953L39125.399999999994,5196.449999999953L39238.899999999994,5192.699999999953L39273.69999999998,5015.54999999993L39473.49999999997,4881.749999999884L39900.19999999998,4863.899999999907L40113.600000000006,5023.199999999953L40396.50000000003,5145.59999999986L40599.30000000002,5358.449999999953L40873.20000000004,5627.54999999993L40920.100000000006,5736L41203.100000000064,5835.449999999837L41584.50000000003,5670.899999999907L41846.19999999998,5403.899999999907L42063.70000000004,5346.449999999953L42782.50000000003,5636.699999999953L44250.399999999994,5768.999999999884L44479.30000000002,4991.249999999884L44384.69999999998,4314.59999999986L44694.899999999994,3737.4000000000233L45672.90000000005,2908.3499999998603L46261.20000000004,2464.04999999993L46230.899999999994,2180.2499999998836L46435.19999999998,2002.7999999999302L47121.80000000002,1792.0499999999302L47337.50000000003,1757.2499999998836L47678.00000000003,1117.6499999999069L47946.600000000006,796.4999999998836L48954.80000000002,513.4499999999534L49395.50000000003,134.24999999988358L49683.00000000003,0L49991.399999999994,42.749999999883585L50112.399999999994,282.7499999998836L50103.00000000003,459.75L50409.40000000005,474L50948.50000000003,908.8499999998603L51264.399999999994,1229.9999999998836L51743.00000000003,1616.2499999998836L51833.80000000002,1261.6499999999069L51905.600000000006,968.8499999998603L52367.19999999998,820.199999999837L52690.70000000004,1115.9999999998836L53008.399999999994,897.7499999998836L53810.49999999997,826.5L54707.100000000006,968.8499999998603L55244.30000000002,1033.7999999999302L55380.50000000003,1297.9499999999534L55123.20000000004,1568.6999999999534L55006.00000000003,1709.6999999999534L55378.600000000006,2069.4000000000233L55552.600000000006,2397.4499999999534L55796.600000000006,2959.04999999993L56396.30000000002,2955.9000000000233L56619.50000000003,3055.9499999999534L56750.00000000003,2760.7499999998836L57680.600000000006,2394.29999999993L58355.90000000005,2197.649999999907L59277.100000000006,2048.699999999837L59441.69999999998,2235.7499999998836L59681.899999999994,2142.29999999993L60024.30000000002,2227.8000000000466L60567.20000000004,2684.54999999993L60862.30000000002,2649.5999999999767L61426.00000000003,2716.3499999999767L61802.40000000005,2875.0499999998137L61946.19999999998,3008.25L62262.100000000006,2971.79999999993L62822.00000000003,3148.04999999993L62994.100000000006,3362.399999999907L62910.90000000005,3533.9999999998836L63192.70000000004,3721.4999999998836L63338.399999999994,3931.3499999998603L63215.399999999994,4120.5L62591.20000000004,4348.04999999993L62770.899999999994,4639.34999999986L62700.90000000005,4819.199999999953L62500.40000000005,4817.54999999993L62443.69999999998,5367.29999999993L62214.80000000002,6073.79999999993L62403.90000000005,6305.25L62956.30000000002,6629.399999999907L63444.30000000002,6990.449999999953L63843.40000000005,6634.199999999837L63958.80000000002,6444.149999999907L64026.899999999994,6174.29999999993L64429.80000000002,5877.449999999837L65067.30000000002,5674.949999999953L65753.9,5515.499999999884L66058.50000000003,5579.249999999884L66223.00000000003,5863.199999999837L66550.30000000002,5380.04999999993L66796.20000000004,4911.599999999977L67091.30000000002,4671.149999999907L67375.00000000003,4671.149999999907L68071.1,4515.150000000023L68597.00000000003,4529.400000000023L69003.70000000004,4744.34999999986L69495.50000000003,5064.449999999837L69784.90000000005,4486.5L70076.20000000004,4379.849999999977L70371.30000000002,4567.650000000023L70821.50000000003,4505.54999999993L71248.99999999997,4553.400000000023L71432.50000000003,4741.199999999953L71375.70000000004,5102.699999999953L71742.70000000004,5053.349999999977L72427.4,5316.29999999993L73161.4,5403.899999999907L73683.4,5668.5L73761.00000000003,5981.249999999884L73566.20000000004,6094.5L73734.50000000003,6321.149999999907L74207.40000000005,6324.29999999993L74714.4,6571.79999999993L75003.80000000002,7113.59999999986L75183.50000000003,7570.949999999953L75321.50000000003,7706.849999999977L75764.20000000004,7663.649999999907L76117.90000000005,8571.75L76269.19999999998,8634.149999999907L76585.1,8150.400000000023L77016.4,8089.5L77695.50000000003,8231.999999999884L77956.49999999997,8454.749999999884L78115.4,9607.949999999837L78088.90000000005,10314.75L78005.70000000004,10456.199999999837L77600.90000000005,10867.949999999837L77835.50000000003,11700.29999999993L77801.40000000005,12156.449999999953L77099.60000000006,12675.75L76728.9,13130.999999999884L77215.00000000003,13384.649999999907L77356.90000000005,13515.599999999977L77334.19999999998,13745.099999999977L77839.20000000004,14379.150000000023L78202.4,15127.349999999977L78420.00000000003,16077.599999999977L78597.80000000002,16829.54999999993L78501.30000000002,17348.099999999977L78134.30000000002,17696.249999999884L78092.70000000004,17979.59999999986L77896.00000000003,18310.199999999837L76732.69999999998,18680.09999999986L76887.80000000002,19082.849999999977L76719.4,19570.649999999907L76431.9,19696.349999999977L76038.49999999997,20547.75L76776.19999999998,20770.049999999814L76935.1,20912.399999999907L77521.50000000003,21254.399999999907L77776.80000000002,21385.349999999977L78200.49999999997,21739.199999999953L78524.00000000003,21753.899999999907L78686.69999999998,22066.949999999953L78665.90000000005,22240.650000000023L78387.80000000002,22463.699999999953L78985.50000000003,22448.999999999884L79761.1,22499.849999999977L80217.00000000003,22568.699999999837L80498.80000000002,22883.849999999977L80667.19999999998,23194.04999999993L80560.00000000003,23385.899999999907L79883.9,24583.79999999993L79507.80000000002,24993.300000000047L80360.50000000003,25352.54999999993L80811.19999999998,25626.29999999993L81191.80000000002,26696.25L81563.40000000005,27223.199999999953L81684.1,27605.54999999993L81751.00000000003,28040.84999999986L81698.9,28720.34999999986L82278.20000000004,29140.04999999993L82553.10000000006,29251.34999999986L83445.50000000003,29794.649999999907L83954.00000000003,30288.75L84882.4,30425.099999999977L85349.1,30857.54999999993L86193.19999999998,30893.54999999993L87502.50000000003,32073.449999999953L87407.10000000006,33312.74999999988L86808.20000000004,34740.90000000002L86519.50000000003,35251.64999999991L87385.40000000005,35679.75L89849.4,35083.34999999986L93048.6,36356.84999999986L93688.50000000003,36817.04999999993L93778.70000000004,37417.64999999991L93226.20000000004,38149.19999999995L93801.20000000004,39232.94999999995L94996.30000000002,39976.64999999991L96132.30000000002,40561.80000000005L96552.19999999998,41275.19999999995L95867.50000000003,42897.59999999998L95590.4,43057.94999999995L94054.80000000002,43456.49999999988L93714.30000000002,43601.39999999991L92823.10000000006,45018.89999999991L90902.80000000002,46336.94999999984L90108.20000000004,46764.59999999998L88150.9,46780.79999999993L86761.80000000002,46285.04999999993L85580.30000000002,45319.04999999993L84326.50000000003,45083.84999999986L83027.70000000004,45148.64999999991L82639.80000000002,46057.64999999991L82414.30000000002,48123.75L84001.80000000002,49665.44999999995L85092.90000000005,51113.39999999991L85753.50000000003,54117.59999999986L87074.80000000002,59813.09999999998L86597.50000000003,61288.5L85708.69999999998,61538.84999999998L82531.50000000003,61188.59999999986L81424.69999999998,62172.90000000002L80703.9,62285.40000000002L79802.00000000003,61744.64999999991L78115.30000000002,61769.54999999993L77862.70000000004,62835.14999999991L76650.70000000004,64312.79999999993L75252.19999999998,65877.44999999995L74756.00000000003,67102.94999999995L74288.9,67676.99999999988L74127.30000000002,68558.3999999999L74410.20000000004,69327.74999999988L74802.70000000004,70631.69999999995L75056.70000000004,71954.3999999999L75171.50000000003,72616.34999999998L74785.40000000005,72868.19999999984L74794.6,73154.09999999998L74534.80000000002,73570.19999999995L73945.9,73834.79999999993L72838.70000000004,73810.19999999995L72629.10000000006,73403.54999999993L72392.70000000004,73287.1499999999L71438.00000000003,72397.79999999993L71482.30000000002,72098.84999999998L71730.6,71918.99999999988L71328.6,71155.79999999993L70326.69999999998,70462.49999999988L69564.19999999998,70564.6499999999L68766.1,70360.34999999998L68107.00000000003,70757.99999999988L67510.00000000003,70705.5L67314.9,71061.90000000002L67156.80000000002,71174.54999999993L66651.80000000002,71093.25L66287.80000000002,71283L65625.30000000002,70980.1499999999L65604.30000000002,70677.75L65528.69999999998,70308.90000000002L65592.49999999997,70061.54999999993L65611.4,69915.8999999999L65356.100000000006,70059.44999999984L65091.19999999998,70273.5L64616.00000000003,70408.19999999984L64528.50000000003,70702.04999999993L64267.30000000002,70899.75L63826.20000000004,70925.24999999988L63626.600000000006,71709.59999999998L63332.20000000004,71958.1499999999L62593.30000000002,71731.19999999984L62027.50000000003,72093.29999999981L61542.69999999998,72185.69999999995L61420.69999999998,72057L60914.50000000003,70881.8999999999L60652.20000000004,70253.69999999995L60367.70000000004,69267.74999999988L59994.600000000006,68627.24999999988L59710.100000000006,68238.44999999995L59396.100000000006,68334.75L58694.100000000006,69057.59999999986L58380.100000000064,69295.34999999998L58125.20000000004,69305.69999999995L57907.20000000004,69105.8999999999L57216.30000000002,69222.8999999999L56680.600000000006,69567.44999999995L56340.70000000004,70184.69999999995L56296.399999999994,70491.75L56370.30000000002,70947.44999999995L56152.30000000002,71472.59999999998L55896.80000000002,71638.04999999993L55014.69999999998,71128.19999999995L54696.100000000006,69933.29999999993L54552.90000000005,69317.09999999986L53790.899999999994,69231L53139.80000000002,69058.79999999993L52424.00000000003,69713.3999999999L51851.30000000002,69829.79999999993L51648.100000000006,69640.19999999995L50840.00000000003,68598.29999999993L50627.50000000003,68348.84999999998L50775.30000000002,67880.25L50364.30000000002,68176.79999999993L50179.600000000006,68568.1499999999L49796.30000000002,69020.09999999998L49209.80000000002,69299.84999999986L47796.600000000006,69571.19999999995L47510.30000000002,69411.8999999999L47311.70000000004,68817.74999999988L47057.70000000004,68585.3999999999L46919.20000000004,68856.44999999995L47085.399999999994,69472.19999999984L46960.69999999998,69756.59999999986L46180.30000000002,70774.34999999986L45763.50000000003,70788.74999999988L45094.100000000064,70328.24999999988L44794.80000000002,69979.79999999993L44998.00000000003,69510.8999999999L45252.99999999997,69245.69999999995L45408.100000000006,68856.44999999995L44510.40000000005,68801.3999999999L43900.80000000002,68508.8999999999L43686.50000000003,68952.8999999999L43409.399999999994,69094.04999999993L42973.399999999994,68911.5L42208.69999999998,68777.25L41377.399999999994,68887.49999999988L40669.80000000002,68988.90000000002L40493.100000000006,68607.29999999993L40204.399999999994,67779.74999999988L40152.50000000003,66320.3999999999L38489.899999999994,66422.24999999988L38137.80000000002,66781.34999999998L37824.899999999994,66883.94999999995L36299.100000000006,66585.29999999993L35630.40000000005,66142.79999999993L35275.69999999998,65666.3999999999L34389.100000000006,65584.19999999995L33853.40000000005,65995.34999999986L33030.00000000003,65935.6499999999L29927.70000000001,64933.79999999993L27640.900000000023,64270.49999999988L22421.900000000023,64059.89999999991L19773.600000000006,63562.34999999998L17977.300000000017,64482.59999999986L15893.600000000035,64670.69999999995L13100.50000000003,64677.59999999998L11925.70000000004,65139.74999999988L11855.50000000003,66394.04999999993L11511.900000000023,66867.59999999986L9180.70000000004,68606.84999999986L8301.00000000003,69155.54999999993L7652.200000000041,68982.44999999984L7100.900000000023,68973.1499999999L6905.100000000006,68773.04999999993L7212.500000000029,68299.5L6789.200000000012,68244.44999999995L6406.1999999999825,68262.1499999999L6193.399999999994,68259.8999999999L6091.700000000012,68149.79999999993L5959.3000000000175,67960.6499999999L5396.500000000029,68132.24999999988L4670.600000000006,68433.8999999999L5136.400000000023,68955.8999999999L5058.400000000023,69295.5L4959.100000000006,69482.84999999986L5124.600000000006,69796.19999999995L5264.100000000006,70230.8999999999L4988.100000000006,70425.59999999986" stroke="black" stroke-width="1" fill="green"/></svg>