# 3ds Max Wavefront OBJ Exporter v0.97b - (c)2007 guruware
# File Created: 20.02.2015 17:30:10

mtllib table.mtl

#
# object place
#

v  -37.5000 0.0000 -75.0000
v  -37.5000 0.0000 75.0000
v  37.5000 0.0000 -75.0000
v  37.5000 0.0000 75.0000
# 4 vertices

vn 0.0000 1.0000 -0.0000
# 1 vertex normals

vt 0.0000 1.0000 0.0000
vt 0.0000 0.0000 0.0000
vt 1.0000 1.0000 0.0000
vt 1.0000 0.0000 0.0000
# 4 texture coords

g place
usemtl default
s 1
f 1/1/1 2/2/1 3/3/1 
f 4/4/1 3/3/1 2/2/1 
# 2 faces

#
# object vorota2
#

v  -7.5000 0.0000 75.0000
v  -7.5000 0.0000 73.0000
v  7.5000 0.0000 73.0000
v  7.5000 0.0000 75.0000
v  -7.5000 2.0000 75.0000
v  7.5000 2.0000 75.0000
v  7.5000 2.0000 73.0000
v  -7.5000 2.0000 73.0000
# 8 vertices

vn 0.0000 -1.0000 -0.0000
vn 0.0000 1.0000 -0.0000
vn 0.0000 0.0000 1.0000
vn 1.0000 0.0000 -0.0000
vn 0.0000 0.0000 -1.0000
vn -1.0000 0.0000 -0.0000
# 6 vertex normals

vt 1.0000 0.0000 0.0000
vt 1.0000 1.0000 0.0000
vt 0.0000 1.0000 0.0000
vt 0.0000 0.0000 0.0000
# 4 texture coords

g vorota2
usemtl 03___Default
s 2
f 5/5/2 6/6/2 7/7/2 
f 7/7/2 8/8/2 5/5/2 
s 4
f 9/8/3 10/5/3 11/6/3 
f 11/6/3 12/7/3 9/8/3 
s 8
f 5/8/4 8/5/4 10/6/4 
f 10/6/4 9/7/4 5/8/4 
s 16
f 8/8/5 7/5/5 11/6/5 
f 11/6/5 10/7/5 8/8/5 
s 32
f 7/8/6 6/5/6 12/6/6 
f 12/6/6 11/7/6 7/8/6 
s 64
f 6/8/7 5/5/7 9/6/7 
f 9/6/7 12/7/7 6/8/7 
# 12 faces

#
# object vorota1
#

v  -7.5000 0.0000 -73.0000
v  -7.5000 0.0000 -75.0000
v  7.5000 0.0000 -75.0000
v  7.5000 0.0000 -73.0000
v  -7.5000 2.0000 -73.0000
v  7.5000 2.0000 -73.0000
v  7.5000 2.0000 -75.0000
v  -7.5000 2.0000 -75.0000
# 8 vertices

vn 0.0000 -1.0000 -0.0000
vn 0.0000 1.0000 -0.0000
vn 0.0000 0.0000 1.0000
vn 1.0000 0.0000 -0.0000
vn 0.0000 0.0000 -1.0000
vn -1.0000 0.0000 -0.0000
# 6 vertex normals

vt 1.0000 0.0000 0.0000
vt 1.0000 1.0000 0.0000
vt 0.0000 1.0000 0.0000
vt 0.0000 0.0000 0.0000
# 4 texture coords

g vorota1
usemtl 03___Default
s 2
f 13/9/8 14/10/8 15/11/8 
f 15/11/8 16/12/8 13/9/8 
s 4
f 17/12/9 18/9/9 19/10/9 
f 19/10/9 20/11/9 17/12/9 
s 8
f 13/12/10 16/9/10 18/10/10 
f 18/10/10 17/11/10 13/12/10 
s 16
f 16/12/11 15/9/11 19/10/11 
f 19/10/11 18/11/11 16/12/11 
s 32
f 15/12/12 14/9/12 20/10/12 
f 20/10/12 19/11/12 15/12/12 
s 64
f 14/12/13 13/9/13 17/10/13 
f 17/10/13 20/11/13 14/12/13 
# 12 faces

#
# object bort2
#

v  -37.5000 0.0000 75.0000
v  -37.5000 0.0000 -75.0000
v  -35.5000 0.0000 -75.0000
v  -35.5000 0.0000 75.0000
v  -37.5000 2.0000 75.0000
v  -35.5000 2.0000 75.0000
v  -35.5000 2.0000 -75.0000
v  -37.5000 2.0000 -75.0000
# 8 vertices

vn 0.0000 -1.0000 -0.0000
vn 0.0000 1.0000 -0.0000
vn 0.0000 0.0000 1.0000
vn 1.0000 0.0000 -0.0000
vn 0.0000 0.0000 -1.0000
vn -1.0000 0.0000 -0.0000
# 6 vertex normals

vt 1.0000 0.0000 0.0000
vt 1.0000 1.0000 0.0000
vt 0.0000 1.0000 0.0000
vt 0.0000 0.0000 0.0000
# 4 texture coords

g bort2
usemtl 02___Default
s 2
f 21/13/14 22/14/14 23/15/14 
f 23/15/14 24/16/14 21/13/14 
s 4
f 25/16/15 26/13/15 27/14/15 
f 27/14/15 28/15/15 25/16/15 
s 8
f 21/16/16 24/13/16 26/14/16 
f 26/14/16 25/15/16 21/16/16 
s 16
f 24/16/17 23/13/17 27/14/17 
f 27/14/17 26/15/17 24/16/17 
s 32
f 23/16/18 22/13/18 28/14/18 
f 28/14/18 27/15/18 23/16/18 
s 64
f 22/16/19 21/13/19 25/14/19 
f 25/14/19 28/15/19 22/16/19 
# 12 faces

#
# object bort3
#

v  -35.5000 0.0000 75.0000
v  -35.5000 0.0000 73.0000
v  -7.5000 0.0000 73.0000
v  -7.5000 0.0000 75.0000
v  -35.5000 2.0000 75.0000
v  -7.5000 2.0000 75.0000
v  -7.5000 2.0000 73.0000
v  -35.5000 2.0000 73.0000
# 8 vertices

vn 0.0000 -1.0000 -0.0000
vn 0.0000 1.0000 -0.0000
vn 0.0000 0.0000 1.0000
vn 1.0000 0.0000 -0.0000
vn 0.0000 0.0000 -1.0000
vn -1.0000 0.0000 -0.0000
# 6 vertex normals

vt 1.0000 0.0000 0.0000
vt 1.0000 1.0000 0.0000
vt 0.0000 1.0000 0.0000
vt 0.0000 0.0000 0.0000
# 4 texture coords

g bort3
usemtl 02___Default
s 2
f 29/17/20 30/18/20 31/19/20 
f 31/19/20 32/20/20 29/17/20 
s 4
f 33/20/21 34/17/21 35/18/21 
f 35/18/21 36/19/21 33/20/21 
s 8
f 29/20/22 32/17/22 34/18/22 
f 34/18/22 33/19/22 29/20/22 
s 16
f 32/20/23 31/17/23 35/18/23 
f 35/18/23 34/19/23 32/20/23 
s 32
f 31/20/24 30/17/24 36/18/24 
f 36/18/24 35/19/24 31/20/24 
s 64
f 30/20/25 29/17/25 33/18/25 
f 33/18/25 36/19/25 30/20/25 
# 12 faces

#
# object bort4
#

v  7.5000 0.0000 75.0000
v  7.5000 0.0000 73.0000
v  35.5000 0.0000 73.0000
v  35.5000 0.0000 75.0000
v  7.5000 2.0000 75.0000
v  35.5000 2.0000 75.0000
v  35.5000 2.0000 73.0000
v  7.5000 2.0000 73.0000
# 8 vertices

vn 0.0000 -1.0000 -0.0000
vn 0.0000 1.0000 -0.0000
vn 0.0000 0.0000 1.0000
vn 1.0000 0.0000 -0.0000
vn 0.0000 0.0000 -1.0000
vn -1.0000 0.0000 -0.0000
# 6 vertex normals

vt 1.0000 0.0000 0.0000
vt 1.0000 1.0000 0.0000
vt 0.0000 1.0000 0.0000
vt 0.0000 0.0000 0.0000
# 4 texture coords

g bort4
usemtl 02___Default
s 2
f 37/21/26 38/22/26 39/23/26 
f 39/23/26 40/24/26 37/21/26 
s 4
f 41/24/27 42/21/27 43/22/27 
f 43/22/27 44/23/27 41/24/27 
s 8
f 37/24/28 40/21/28 42/22/28 
f 42/22/28 41/23/28 37/24/28 
s 16
f 40/24/29 39/21/29 43/22/29 
f 43/22/29 42/23/29 40/24/29 
s 32
f 39/24/30 38/21/30 44/22/30 
f 44/22/30 43/23/30 39/24/30 
s 64
f 38/24/31 37/21/31 41/22/31 
f 41/22/31 44/23/31 38/24/31 
# 12 faces

#
# object bort1
#

v  35.5000 0.0000 75.0000
v  35.5000 0.0000 -75.0000
v  37.5000 0.0000 -75.0000
v  37.5000 0.0000 75.0000
v  35.5000 2.0000 75.0000
v  37.5000 2.0000 75.0000
v  37.5000 2.0000 -75.0000
v  35.5000 2.0000 -75.0000
# 8 vertices

vn 0.0000 -1.0000 -0.0000
vn 0.0000 1.0000 -0.0000
vn 0.0000 0.0000 1.0000
vn 1.0000 0.0000 -0.0000
vn 0.0000 0.0000 -1.0000
vn -1.0000 0.0000 -0.0000
# 6 vertex normals

vt 1.0000 0.0000 0.0000
vt 1.0000 1.0000 0.0000
vt 0.0000 1.0000 0.0000
vt 0.0000 0.0000 0.0000
# 4 texture coords

g bort1
usemtl 02___Default
s 2
f 45/25/32 46/26/32 47/27/32 
f 47/27/32 48/28/32 45/25/32 
s 4
f 49/28/33 50/25/33 51/26/33 
f 51/26/33 52/27/33 49/28/33 
s 8
f 45/28/34 48/25/34 50/26/34 
f 50/26/34 49/27/34 45/28/34 
s 16
f 48/28/35 47/25/35 51/26/35 
f 51/26/35 50/27/35 48/28/35 
s 32
f 47/28/36 46/25/36 52/26/36 
f 52/26/36 51/27/36 47/28/36 
s 64
f 46/28/37 45/25/37 49/26/37 
f 49/26/37 52/27/37 46/28/37 
# 12 faces

#
# object bort5
#

v  7.5000 0.0000 -73.0000
v  7.5000 0.0000 -75.0000
v  35.5000 0.0000 -75.0000
v  35.5000 0.0000 -73.0000
v  7.5000 2.0000 -73.0000
v  35.5000 2.0000 -73.0000
v  35.5000 2.0000 -75.0000
v  7.5000 2.0000 -75.0000
# 8 vertices

vn 0.0000 -1.0000 -0.0000
vn 0.0000 1.0000 -0.0000
vn 0.0000 0.0000 1.0000
vn 1.0000 0.0000 -0.0000
vn 0.0000 0.0000 -1.0000
vn -1.0000 0.0000 -0.0000
# 6 vertex normals

vt 1.0000 0.0000 0.0000
vt 1.0000 1.0000 0.0000
vt 0.0000 1.0000 0.0000
vt 0.0000 0.0000 0.0000
# 4 texture coords

g bort5
usemtl 02___Default
s 2
f 53/29/38 54/30/38 55/31/38 
f 55/31/38 56/32/38 53/29/38 
s 4
f 57/32/39 58/29/39 59/30/39 
f 59/30/39 60/31/39 57/32/39 
s 8
f 53/32/40 56/29/40 58/30/40 
f 58/30/40 57/31/40 53/32/40 
s 16
f 56/32/41 55/29/41 59/30/41 
f 59/30/41 58/31/41 56/32/41 
s 32
f 55/32/42 54/29/42 60/30/42 
f 60/30/42 59/31/42 55/32/42 
s 64
f 54/32/43 53/29/43 57/30/43 
f 57/30/43 60/31/43 54/32/43 
# 12 faces

#
# object bort6
#

v  -35.5000 0.0000 -73.0000
v  -35.5000 0.0000 -75.0000
v  -7.5000 0.0000 -75.0000
v  -7.5000 0.0000 -73.0000
v  -35.5000 2.0000 -73.0000
v  -7.5000 2.0000 -73.0000
v  -7.5000 2.0000 -75.0000
v  -35.5000 2.0000 -75.0000
# 8 vertices

vn 0.0000 -1.0000 -0.0000
vn 0.0000 1.0000 -0.0000
vn 0.0000 0.0000 1.0000
vn 1.0000 0.0000 -0.0000
vn 0.0000 0.0000 -1.0000
vn -1.0000 0.0000 -0.0000
# 6 vertex normals

vt 1.0000 0.0000 0.0000
vt 1.0000 1.0000 0.0000
vt 0.0000 1.0000 0.0000
vt 0.0000 0.0000 0.0000
# 4 texture coords

g bort6
usemtl 02___Default
s 2
f 61/33/44 62/34/44 63/35/44 
f 63/35/44 64/36/44 61/33/44 
s 4
f 65/36/45 66/33/45 67/34/45 
f 67/34/45 68/35/45 65/36/45 
s 8
f 61/36/46 64/33/46 66/34/46 
f 66/34/46 65/35/46 61/36/46 
s 16
f 64/36/47 63/33/47 67/34/47 
f 67/34/47 66/35/47 64/36/47 
s 32
f 63/36/48 62/33/48 68/34/48 
f 68/34/48 67/35/48 63/36/48 
s 64
f 62/36/49 61/33/49 65/34/49 
f 65/34/49 68/35/49 62/36/49 
# 12 faces

